<svg width="170" height="128" viewBox="0 0 170 128" fill="none" xmlns="http://www.w3.org/2000/svg">
<path fill-rule="evenodd" clip-rule="evenodd" d="M16.4999 18.8607C11.1164 18.8801 11.035 18.8829 10.8139 19.04C10.6909 19.1278 10.6104 19.2322 10.6349 19.2724C10.6599 19.3126 10.6516 19.3361 10.6169 19.3255C10.5216 19.2955 10.1285 19.6628 10.1752 19.7381C10.1974 19.7742 10.1558 19.8037 10.0823 19.8037C10.0092 19.8037 9.96987 19.8241 9.99438 19.8486C10.0638 19.9179 9.80337 20.1868 9.71827 20.1341C9.67479 20.1078 9.66785 20.1281 9.70115 20.1817C9.73862 20.2422 9.69884 20.2917 9.59108 20.3198C9.46389 20.3531 9.4477 20.3799 9.5254 20.4294C9.60403 20.4793 9.59663 20.4945 9.49349 20.4954C9.41903 20.4964 9.35844 20.5509 9.35844 20.617C9.35844 20.6826 9.32745 20.7177 9.28953 20.6941C9.22154 20.6525 9.09112 20.8646 9.11517 20.9778C9.12164 21.0097 9.09528 21.0356 9.05643 21.0356C8.95977 21.0356 8.3562 21.6044 8.3562 21.6958C8.3562 21.736 8.25446 21.8534 8.12958 21.956C8.00517 22.059 7.91822 22.1676 7.93625 22.1976C7.96678 22.2466 7.74524 22.3691 7.66939 22.3446C7.65182 22.339 7.59169 22.443 7.53573 22.5761C7.48023 22.7091 7.39791 22.7955 7.35397 22.7683C7.30957 22.741 7.28274 22.7646 7.29477 22.8205C7.30633 22.8764 7.27257 22.9138 7.21938 22.9032C7.16619 22.8926 7.12318 22.9346 7.12318 22.9965C7.12318 23.0589 7.0538 23.1462 6.96963 23.1915C6.88545 23.2368 6.76289 23.3763 6.69768 23.5025C6.63293 23.6281 6.54552 23.7312 6.50435 23.7312C6.42296 23.7312 5.87166 24.3111 5.81986 24.4511C5.80228 24.4977 5.64642 24.6692 5.47298 24.8323C5.29954 24.9954 5.16588 25.1608 5.17652 25.2001C5.18716 25.2393 5.13998 25.2712 5.07199 25.2712C4.99198 25.2712 4.96423 25.3133 4.99429 25.3909C5.01927 25.4565 5.0114 25.4925 4.97625 25.4708C4.8893 25.4172 4.37501 25.9125 4.31164 26.1112C4.28343 26.1999 4.21036 26.2725 4.14884 26.2725C4.08779 26.2725 3.96893 26.3848 3.88522 26.5224C3.80151 26.6601 3.71086 26.7613 3.68403 26.7475C3.65674 26.7331 3.57488 26.8131 3.50134 26.9249C3.42827 27.0367 3.29368 27.1799 3.20303 27.2437C3.11192 27.307 3.03699 27.435 3.03653 27.5279C3.0356 27.6656 3.02127 27.6753 2.96068 27.5815C2.89685 27.4826 2.88576 27.4854 2.88483 27.6009C2.88391 27.6748 2.83349 27.7353 2.77198 27.7353C2.71093 27.7353 2.59947 27.8393 2.52408 27.9664C2.44915 28.0934 2.36267 28.1974 2.3326 28.1974C2.30208 28.1974 2.25444 28.2695 2.22623 28.3573C2.19848 28.445 2.15593 28.4977 2.13188 28.4737C2.06112 28.403 1.87843 28.5924 1.93254 28.6802C1.95983 28.7241 1.94596 28.738 1.90202 28.7107C1.80212 28.6493 1.63701 28.8373 1.66661 28.9787C1.67863 29.036 1.63654 29.0753 1.57318 29.0656C1.50935 29.0559 1.37893 29.1686 1.28319 29.316C1.18745 29.4634 1.05749 29.5835 0.995055 29.5835C0.812367 29.5835 0.900243 29.9966 1.13196 30.2281C1.24342 30.3395 1.38726 30.431 1.45154 30.431C1.52878 30.431 1.55144 30.4744 1.51907 30.5589C1.48623 30.6435 1.49964 30.6684 1.55746 30.6329C1.60694 30.6024 1.72257 30.6689 1.82108 30.7849C1.91774 30.8981 2.09488 31.0815 2.21467 31.192C2.58282 31.532 2.75857 31.7155 2.99398 32.0038C3.15632 32.2034 3.23725 32.2542 3.28165 32.184C3.32606 32.1137 3.34409 32.1248 3.34455 32.2237C3.34548 32.299 3.39821 32.3808 3.46157 32.4053C3.52539 32.4293 3.57719 32.5 3.57719 32.5615C3.57719 32.6229 3.60864 32.6539 3.64703 32.6299C3.68588 32.6063 3.80335 32.6885 3.90834 32.8138C4.01379 32.9385 4.1123 33.0295 4.12757 33.0161C4.14283 33.0027 4.29823 33.1432 4.47306 33.3285C4.64788 33.5138 4.78108 33.6653 4.76952 33.6653C4.75749 33.6653 5.01325 33.9245 5.33793 34.241C5.6626 34.558 6.0585 34.9475 6.2176 35.1074C6.3767 35.2673 6.57743 35.4017 6.66299 35.4068C6.74902 35.4114 6.80174 35.3976 6.78 35.3758C6.75827 35.3541 6.81793 35.2696 6.91228 35.1873C7.00709 35.1055 7.08433 35.0067 7.08433 34.9678C7.08433 34.929 7.11254 34.899 7.14723 34.9013C7.22909 34.9064 7.50844 34.5515 7.50844 34.4425C7.50844 34.3963 7.53989 34.3584 7.57828 34.3584C7.71518 34.3584 8.36407 33.663 8.30995 33.5752C8.2785 33.5244 8.2896 33.5082 8.33585 33.5369C8.37979 33.5641 8.43483 33.5142 8.45795 33.4255C8.48108 33.3368 8.53473 33.286 8.57682 33.3119C8.6189 33.3382 8.67672 33.2869 8.70493 33.1986C8.73268 33.1099 8.77384 33.0554 8.79558 33.0771C8.84923 33.1307 9.09065 32.8891 9.15124 32.7209C9.17807 32.6465 9.24282 32.5947 9.29508 32.6054C9.34734 32.6165 9.39174 32.5795 9.39359 32.5231C9.39544 32.4668 9.45788 32.3762 9.53188 32.3221C9.60588 32.2681 9.66693 32.1863 9.66693 32.141C9.66693 32.0957 9.73677 32.0361 9.82187 32.0093C9.90743 31.9821 9.96432 31.9363 9.94859 31.9077C9.93287 31.879 10.0189 31.7617 10.1401 31.6466C10.2612 31.532 10.3625 31.4627 10.3653 31.4927C10.3681 31.5228 10.4018 31.4696 10.4402 31.374C10.4782 31.2788 10.5628 31.2007 10.628 31.2007C10.6946 31.2007 10.7459 31.1337 10.7459 31.0469C10.7459 30.96 10.7973 30.893 10.8639 30.893C10.9291 30.893 11.0049 30.832 11.0332 30.7581C11.0614 30.6842 11.251 30.4578 11.4545 30.2558C11.6585 30.0539 11.825 29.8557 11.825 29.8155C11.825 29.7753 11.8772 29.7624 11.9406 29.7869C12.0044 29.8113 12.0608 29.7929 12.0659 29.7457C12.0715 29.6991 12.0798 29.6256 12.0853 29.5826C12.0904 29.5397 12.1931 29.4398 12.3134 29.3613C12.4331 29.2823 12.5261 29.1954 12.5196 29.1677C12.5127 29.1404 12.5247 29.0753 12.5455 29.0235C12.5663 28.9718 12.5872 38.6841 12.5909 50.6069C12.595 62.5298 12.6237 72.3197 12.6551 72.3622C12.6912 72.4112 14.39 72.4496 17.375 72.4685L22.0388 72.4981L22.0194 53.255C22.0087 42.6712 21.9912 30.5982 21.981 26.4263L21.9616 18.8408L16.4999 18.8607ZM12.3208 102.132C12.2602 102.199 12.2107 102.294 12.2107 102.344C12.2107 102.393 12.164 102.434 12.1066 102.434C11.9919 102.434 11.683 102.741 11.794 102.745C11.8324 102.746 11.7963 102.798 11.714 102.86C11.6316 102.922 11.5909 102.973 11.6233 102.973C11.6557 102.973 11.6298 103.025 11.5664 103.089C11.5026 103.152 11.4346 103.204 11.4147 103.204C11.3953 103.204 11.2626 103.314 11.1201 103.449C10.9781 103.584 10.905 103.668 10.9578 103.637C11.011 103.606 11.0544 103.613 11.0544 103.653C11.0544 103.694 10.9971 103.749 10.9277 103.775C10.8579 103.802 10.8236 103.847 10.8519 103.875C10.8796 103.902 10.7954 103.97 10.6645 104.025C10.5156 104.088 10.4476 104.159 10.4828 104.216C10.5175 104.273 10.505 104.285 10.449 104.251C10.3972 104.219 10.3371 104.255 10.3066 104.335C10.2358 104.521 10.0823 104.671 10.0231 104.612C9.99669 104.586 9.97495 104.625 9.97495 104.698C9.97495 104.771 9.94443 104.811 9.90697 104.788C9.86904 104.765 9.79134 104.804 9.73353 104.876C9.64288 104.986 9.64473 104.997 9.7437 104.945C9.80753 104.912 9.74648 104.992 9.60819 105.122C9.47037 105.253 9.34873 105.386 9.33856 105.417C9.32838 105.449 9.29323 105.467 9.26039 105.456C9.22755 105.445 9.16974 105.518 9.13136 105.619C9.09297 105.719 9.00509 105.823 8.93572 105.85C8.8631 105.878 8.83304 105.937 8.86495 105.989C8.90288 106.05 8.87975 106.063 8.7928 106.031C8.7077 105.998 8.66469 106.021 8.66469 106.1C8.66469 106.23 8.85524 106.453 8.9149 106.394C8.93526 106.373 8.99584 106.461 9.04857 106.589C9.10175 106.717 9.17575 106.803 9.21322 106.78C9.25068 106.757 9.2812 106.776 9.2812 106.824C9.2812 106.871 9.31543 106.889 9.35752 106.863C9.40145 106.836 9.4144 106.866 9.38804 106.935C9.3626 107.001 9.38018 107.055 9.42735 107.055C9.47407 107.055 9.57952 107.115 9.66138 107.189C9.74278 107.263 9.86534 107.37 9.93287 107.425C10.0004 107.481 10.0351 107.559 10.0096 107.6C9.98421 107.641 10.0078 107.665 10.0624 107.653C10.1165 107.642 10.1623 107.672 10.1641 107.722C10.1664 107.771 10.1993 107.84 10.2381 107.876C10.2797 107.914 10.2816 107.894 10.2423 107.825C10.1859 107.725 10.1946 107.724 10.307 107.815C10.3787 107.873 10.4375 107.97 10.4375 108.031C10.4375 108.092 10.4721 108.12 10.5147 108.094C10.5572 108.068 10.5919 108.085 10.5919 108.133C10.5919 108.18 10.6275 108.197 10.6706 108.17C10.714 108.143 10.7404 108.163 10.7284 108.213C10.6835 108.411 10.9032 108.363 11.1085 108.13C11.2269 107.996 11.4439 107.768 11.5905 107.625C11.7371 107.481 11.831 107.363 11.7991 107.363C11.7671 107.363 11.935 107.171 12.1714 106.936C12.416 106.694 12.5788 106.473 12.5483 106.424C12.5169 106.373 12.5298 106.359 12.5793 106.39C12.6255 106.418 12.6995 106.38 12.743 106.306C12.787 106.23 12.8235 106.199 12.8249 106.235C12.8263 106.272 12.8956 106.22 12.9789 106.12C13.1297 105.939 13.1306 105.973 13.1329 113.966L13.1357 121.994H13.564C13.7998 121.994 13.9765 122.02 13.9566 122.052C13.9367 122.084 14.5213 122.093 15.2553 122.071C15.9893 122.05 16.5739 122.059 16.554 122.091C16.5341 122.122 16.5462 122.148 16.5804 122.148C16.6363 122.148 16.6382 115.22 16.585 105.649C16.5744 103.754 16.5947 102.203 16.6299 102.203C16.6655 102.203 16.6826 102.168 16.6678 102.124C16.6192 101.979 12.4526 101.986 12.3208 102.132ZM13.0187 114.062C13.0187 118.446 13.0279 120.239 13.039 118.048C13.0506 115.856 13.0506 112.269 13.039 110.077C13.0279 107.885 13.0187 109.679 13.0187 114.062ZM13.4257 122.203C13.5214 122.221 13.6602 122.221 13.7337 122.201C13.8077 122.182 13.7291 122.167 13.5593 122.168C13.3901 122.169 13.3295 122.184 13.4257 122.203Z" fill="#FC9404"/>
<path fill-rule="evenodd" clip-rule="evenodd" d="M30.1709 102.049C30.065 102.083 29.836 102.114 29.6621 102.118C29.4882 102.123 29.2454 102.157 29.1224 102.194C28.9994 102.232 28.7427 102.306 28.5521 102.358C26.5985 102.901 24.5566 104.268 23.4133 105.801C23.2935 105.961 23.1756 106.109 23.1511 106.13C23.0451 106.221 22.4624 107.13 22.4624 107.204C22.4624 107.249 22.4277 107.286 22.3856 107.286C22.3431 107.286 22.3084 107.323 22.3084 107.367C22.3084 107.413 22.2085 107.664 22.0864 107.926C20.5888 111.14 20.9297 115.139 22.9462 118.014C23.4952 118.798 24.5127 119.841 25.353 120.485C26.0051 120.984 26.3002 121.164 27.049 121.524C27.8339 121.901 28.0272 121.971 28.7834 122.146C29.1862 122.239 29.5761 122.347 29.6496 122.386C29.8235 122.477 33.1545 122.478 33.2114 122.386C33.2349 122.348 33.4366 122.292 33.6591 122.262C35.0738 122.069 35.5354 120.713 34.4902 119.82C34.0679 119.458 33.7613 119.412 32.8622 119.575C31.9742 119.736 30.7176 119.738 29.9396 119.579C28.9961 119.386 28.5642 119.265 28.4629 119.164C28.4101 119.111 28.3172 119.068 28.2561 119.068C28.1951 119.068 27.9763 118.964 27.7696 118.837C27.5628 118.71 27.3769 118.606 27.357 118.606C27.1813 118.606 25.4686 117.009 25.4686 116.846C25.4686 116.81 25.3993 116.719 25.3146 116.642C25.23 116.565 25.1606 116.456 25.1606 116.399C25.1606 116.342 25.1259 116.296 25.0834 116.296C25.0408 116.296 25.0061 116.258 25.0061 116.211C25.0061 116.165 24.9432 116.035 24.8665 115.922C23.9868 114.637 23.6857 111.367 24.3092 109.865C24.4729 109.471 25.0376 108.321 25.0848 108.287C25.1134 108.266 25.1805 108.166 25.2337 108.066C25.4344 107.685 26.3899 106.711 27.1323 106.13C27.6933 105.691 28.9795 105.119 29.8827 104.907C30.3508 104.798 32.7109 104.794 32.9972 104.903C34.4717 105.463 35.7047 103.866 34.6581 102.752C34.1179 102.177 31.2004 101.72 30.1709 102.049ZM84.6982 102.084C83.4962 102.382 82.5384 103.32 82.2035 104.528C81.9931 105.286 81.9607 118.88 82.167 119.756C82.4658 121.021 83.3723 121.903 84.8231 122.338C85.6598 122.589 88.7363 122.439 90.2186 122.074C90.4097 122.028 90.6525 121.971 90.7584 121.949C90.8643 121.926 90.9841 121.875 91.0243 121.836C91.0646 121.796 91.1432 121.763 91.1987 121.763C91.3823 121.763 92.5408 121.215 92.7684 121.02C92.8355 120.963 92.9169 120.916 92.9492 120.916C92.9816 120.916 93.0875 120.856 93.1847 120.781C93.2818 120.707 93.4386 120.595 93.5325 120.531C94.0657 120.171 95.6919 118.588 95.6919 118.428C95.6919 118.388 95.7562 118.298 95.8352 118.23C96.0207 118.069 96.5641 117.213 96.7954 116.719C97.2172 115.816 97.4558 115.129 97.5118 114.659C97.5382 114.436 97.5988 114.206 97.6469 114.147C97.7958 113.963 97.8147 110.845 97.6704 110.348C97.6052 110.125 97.5104 109.725 97.4591 109.459C97.4077 109.193 97.3356 108.957 97.2995 108.935C97.263 108.912 97.2334 108.83 97.2334 108.752C97.2334 108.606 96.77 107.609 96.4004 106.959C95.9453 106.159 94.8538 104.92 93.9575 104.187C93.5843 103.882 92.9243 103.435 92.847 103.435C92.8077 103.435 92.7638 103.401 92.7499 103.358C92.6551 103.075 90.0396 102.172 89.1197 102.105C88.8755 102.088 88.6554 102.053 88.6304 102.028C88.5379 101.935 85.1002 101.985 84.6982 102.084ZM128.109 102.13C127.045 102.66 126.826 103.943 127.668 104.722C128.62 105.603 130.192 104.977 130.286 103.68C130.372 102.502 129.132 101.62 128.109 102.13ZM38.1208 102.317C37.5219 102.739 37.5709 101.852 37.5709 112.297C37.5709 120.261 37.5871 121.648 37.6819 121.831C38.1559 122.747 39.7539 122.672 40.1174 121.717C40.271 121.314 40.2127 103.047 40.0568 102.762C39.709 102.124 38.717 101.896 38.1208 102.317ZM44.3595 102.288C43.3096 102.927 43.2915 104.354 44.3257 105.008C45.2669 105.602 46.6276 104.891 46.7201 103.755C46.8112 102.632 45.3178 101.704 44.3595 102.288ZM62.3687 102.338C61.7693 102.792 61.8151 101.996 61.8013 112.214C61.7943 117.493 61.8184 121.441 61.8591 121.581C62.1565 122.607 63.6674 122.801 64.2853 121.893L64.4731 121.618V118.676V115.735L65.6872 115.778C67.7018 115.849 68.6069 116.304 69.8714 117.882C70.3459 118.474 70.647 119.467 70.6461 120.436C70.6447 121.892 71.0249 122.456 72.0077 122.456C73.0604 122.456 73.3374 122.071 73.3374 120.607C73.3374 118.133 72.3611 116.088 70.4768 114.617L69.9672 114.219L70.6392 113.54C73.1903 110.965 73.4442 106.999 71.0119 107.72C70.3931 107.904 70.0277 108.428 70.0203 109.143C70.0125 109.907 69.1203 111.37 68.2601 112.028C67.2995 112.763 66.707 112.97 65.3787 113.038L64.4731 113.084V108.058C64.4731 103.034 64.4731 103.032 64.3048 102.733C64.2118 102.568 64.1133 102.434 64.0851 102.434C64.0569 102.434 63.9542 102.365 63.8561 102.28C63.5657 102.028 62.7341 102.061 62.3687 102.338ZM89.178 104.803C91.2588 105.243 93.5574 107.025 94.3677 108.826C94.6744 109.508 94.7558 109.715 94.8057 109.942C94.8339 110.069 94.9098 110.312 94.9745 110.482C95.1494 110.939 95.1443 113.561 94.9681 113.914C94.8996 114.051 94.8436 114.224 94.8436 114.3C94.8436 114.462 94.4343 115.502 94.2137 115.899C93.8187 116.61 92.2791 118.298 92.0256 118.298C91.9646 118.298 91.9146 118.327 91.9146 118.362C91.9146 118.397 91.8194 118.475 91.7028 118.535C91.5863 118.595 91.4734 118.664 91.4521 118.688C91.2884 118.874 89.7686 119.48 89.2552 119.562C87.0237 119.923 85.1089 119.826 84.8879 119.341C84.8384 119.233 84.769 119.145 84.7334 119.145C84.6978 119.145 84.6686 116.038 84.6686 112.241V105.338L84.9471 104.998L85.225 104.659L87.0089 104.691C87.9899 104.708 88.9662 104.759 89.178 104.803ZM106.021 107.594C105.661 107.623 105.314 107.668 105.25 107.694C105.187 107.719 105.03 107.756 104.903 107.776C104.313 107.866 103.234 108.369 102.401 108.941C101.506 109.557 100.172 111.309 99.8123 112.342C98.9682 114.769 99.5005 117.924 101.049 119.672C101.541 120.226 102.343 120.993 102.431 120.993C102.459 120.993 102.554 121.06 102.641 121.142C103.562 121.999 106.436 122.659 107.871 122.342C108.885 122.119 109.446 121.972 109.644 121.878C110.344 121.546 110.612 121.411 110.646 121.374C110.667 121.351 110.851 121.236 111.054 121.119C112.244 120.432 113.813 118.246 113.943 117.093C114.052 116.125 112.973 115.392 112.022 115.789C111.662 115.939 111.533 116.101 111.274 116.729C110.889 117.662 110.04 118.696 109.387 119.025C109.253 119.093 109.09 119.181 109.027 119.22C107.451 120.191 104.964 119.839 103.536 118.441L103.155 118.069L103.836 117.752C105.668 116.899 106.998 116.296 107.048 116.296C107.067 116.296 107.458 116.12 107.919 115.906C108.38 115.691 108.827 115.486 108.912 115.448C108.996 115.411 109.519 115.174 110.073 114.921C110.626 114.669 111.494 114.279 112 114.055C113.488 113.395 113.677 113.222 113.721 112.469C113.75 111.985 113.112 110.755 112.509 110.128C111.71 109.299 111.498 109.106 111.188 108.926C110.996 108.815 110.821 108.703 110.8 108.678C110.699 108.56 109.771 108.085 109.517 108.022C109.396 107.992 109.193 107.921 109.066 107.866C108.543 107.639 107.094 107.509 106.021 107.594ZM119.703 107.566C117.459 107.781 115.807 109.647 115.81 111.962C115.811 112.712 115.978 113.541 116.203 113.908C116.242 113.972 116.304 114.093 116.341 114.178C116.608 114.785 117.703 115.497 118.944 115.871C119.319 115.984 119.713 116.106 119.819 116.143C119.925 116.179 120.313 116.3 120.681 116.412C122.363 116.921 122.871 118.094 121.869 119.157C121.356 119.702 121.291 119.714 118.726 119.759C116.558 119.797 116.427 119.808 116.22 119.961C115.572 120.442 115.466 121.536 116.022 122.007C116.543 122.449 116.591 122.456 118.826 122.456C120.982 122.456 120.946 122.46 122.093 122.096C124.365 121.373 125.593 118.255 124.475 116.05C123.926 114.968 123.098 114.503 120.327 113.721C118.974 113.338 118.587 113.052 118.421 112.312C118.291 111.733 118.445 111.122 118.814 110.751C119.284 110.28 119.371 110.261 121.362 110.215C123.294 110.171 123.209 110.188 123.65 109.75C124.242 109.162 124.056 108.092 123.287 107.664C123.1 107.559 120.512 107.488 119.703 107.566ZM128.394 107.583C128.119 107.637 127.604 108.025 127.604 108.178C127.604 108.231 127.561 108.288 127.508 108.306C127.405 108.34 127.314 120.678 127.412 121.357C127.612 122.75 129.83 122.727 130.021 121.331C130.096 120.788 130.074 108.915 129.998 108.52C129.921 108.123 129.426 107.594 129.13 107.592C129.033 107.592 128.884 107.579 128.799 107.563C128.714 107.547 128.532 107.556 128.394 107.583ZM139.321 107.596C138.961 107.623 138.596 107.668 138.512 107.694C138.427 107.72 138.271 107.757 138.165 107.775C136.892 107.998 135.074 109.288 134.018 110.717C132.364 112.958 132.279 116.625 133.829 118.921C133.903 119.032 134.032 119.222 134.115 119.345C134.446 119.832 135.79 121.093 136.075 121.183C136.164 121.211 136.237 121.265 136.237 121.301C136.237 121.396 137.273 121.879 137.818 122.038C139.085 122.406 140.531 122.518 141.364 122.312C141.576 122.259 141.974 122.163 142.25 122.098C142.684 121.995 142.954 121.898 143.483 121.656C143.752 121.533 144.575 120.998 144.775 120.816C144.98 120.629 144.983 120.661 144.829 121.393C144.162 124.563 140.38 126.257 137.534 124.66C137.126 124.432 136.187 123.619 136.122 123.438C135.952 122.968 135.334 122.533 134.836 122.533C133.505 122.534 132.984 123.649 133.767 124.82C135.957 128.094 140.821 128.969 144.177 126.691C145.499 125.794 147.183 123.646 147.183 122.857C147.183 122.768 147.217 122.676 147.258 122.65C147.336 122.603 147.437 122.266 147.538 121.725C147.822 120.194 147.592 112.808 147.256 112.689C147.216 112.675 147.183 112.586 147.183 112.492C147.183 111.752 145.642 109.681 144.524 108.92C144.354 108.805 144.204 108.684 144.19 108.652C144.176 108.621 144.124 108.595 144.074 108.595C144.025 108.595 143.794 108.481 143.561 108.342C142.548 107.739 140.993 107.465 139.321 107.596ZM155.778 107.57C153.448 107.697 151.267 109.392 150.446 111.713L150.228 112.33L150.208 116.989L150.187 121.648L150.364 121.851C151.067 122.662 152.183 122.581 152.637 121.687C152.81 121.346 152.811 121.341 152.811 117.343C152.811 112.953 152.83 112.735 153.275 111.979C153.961 110.817 155.004 110.248 156.435 110.253C157.511 110.257 158.084 110.501 158.853 111.282C159.422 111.86 159.386 111.8 159.735 112.753C159.845 113.054 159.867 113.668 159.901 117.388L159.941 121.676L160.172 121.919C160.899 122.682 161.949 122.565 162.415 121.671C162.555 121.401 162.575 113.314 162.437 112.565C162.272 111.672 161.843 110.693 161.305 109.981C160.992 109.568 159.966 108.595 159.842 108.595C159.818 108.595 159.744 108.548 159.677 108.491C159.431 108.28 158.469 107.833 158.143 107.777C158.029 107.758 157.832 107.712 157.705 107.675C157.442 107.598 156.354 107.539 155.778 107.57ZM44.7711 107.688C44.4695 107.749 44.2993 107.865 44.0459 108.181C43.7425 108.559 43.7374 108.669 43.7374 115.051C43.7374 121.876 43.7235 121.67 44.2286 122.165C44.5209 122.451 44.5389 122.456 45.1119 122.456H45.697L46.0661 122.069L46.4356 121.683V115.151C46.4356 108.029 46.4583 108.4 45.9953 107.966C45.7349 107.721 45.2017 107.601 44.7711 107.688ZM55.57 107.708C54.7417 107.805 54.0308 107.994 53.5655 108.24C53.4383 108.308 53.3088 108.363 53.2778 108.363C52.9814 108.366 51.5203 109.49 50.8645 110.22C47.4369 114.035 49.2393 120.645 54.1053 122.106C54.3596 122.183 54.7079 122.293 54.8786 122.351C55.3364 122.506 57.8214 122.499 58.1239 122.341C58.2456 122.278 58.4079 122.226 58.4847 122.226C58.8214 122.225 59.363 121.907 59.5281 121.613C60.1238 120.555 59.1484 119.268 58.0226 119.627C56.8701 119.996 55.4211 119.905 54.4628 119.406C54.3508 119.347 54.2163 119.3 54.1631 119.299C54.1099 119.299 54.0669 119.272 54.0669 119.238C54.0669 119.205 53.9674 119.12 53.8463 119.048C51.075 117.412 51.1712 112.664 54.0077 111.073C54.2098 110.959 54.3749 110.841 54.3749 110.809C54.3749 110.777 54.4225 110.751 54.4808 110.751C54.5391 110.751 54.756 110.674 54.9627 110.58C55.4192 110.372 57.6369 110.317 57.8672 110.507C57.9343 110.563 58.1383 110.614 58.3209 110.621C59.8819 110.68 60.2634 108.436 58.7686 107.988C58.5781 107.931 58.3524 107.856 58.2678 107.821C58.1831 107.786 57.8362 107.736 57.4968 107.71C57.1578 107.683 56.7762 107.65 56.649 107.635C56.5218 107.621 56.0362 107.653 55.57 107.708ZM107.987 110.375C108.85 110.548 110.533 111.606 110.29 111.823C110.2 111.904 109.704 112.151 109.181 112.377C108.948 112.478 108.746 112.587 108.732 112.619C108.718 112.65 108.66 112.676 108.603 112.676C108.507 112.676 108.184 112.818 106.649 113.532C106.295 113.697 105.993 113.831 105.977 113.831C105.947 113.831 105.423 114.065 104.556 114.464C103.252 115.065 102.204 115.525 102.143 115.525C101.976 115.525 102.052 114.271 102.26 113.6C102.57 112.598 103.382 111.511 104.184 111.024C104.367 110.913 104.57 110.79 104.633 110.751C105.4 110.287 106.772 110.133 107.987 110.375ZM141.441 110.369C144.605 111.244 145.955 115.018 144.071 117.72C143.71 118.238 142.782 119.068 142.564 119.068C142.519 119.068 142.481 119.1 142.481 119.139C142.481 119.178 142.351 119.25 142.192 119.298C142.033 119.347 141.834 119.416 141.749 119.451C140.465 119.988 138.257 119.658 137.313 118.787C137.204 118.688 137.074 118.606 137.024 118.606C136.973 118.606 136.931 118.58 136.93 118.548C136.929 118.516 136.764 118.316 136.563 118.103C134.899 116.336 135.033 113.314 136.854 111.54C137.347 111.059 138.336 110.445 138.621 110.442C138.688 110.441 138.879 110.393 139.046 110.335C139.432 110.201 140.908 110.221 141.441 110.369ZM14.1184 123.361C14.5527 123.375 15.264 123.375 15.6983 123.361C16.1331 123.347 15.7774 123.336 14.9084 123.336C14.0393 123.336 13.6837 123.347 14.1184 123.361Z" fill="white"/>
<path fill-rule="evenodd" clip-rule="evenodd" d="M24.2546 1.03265C24.2652 1.08533 24.2166 1.12922 24.1459 1.12968C23.9757 1.13107 23.6866 1.39814 23.7481 1.49748C23.775 1.54091 23.7629 1.55523 23.7213 1.52982C23.6256 1.47022 23.4059 1.7225 23.4466 1.84494C23.4655 1.90131 23.4313 1.91979 23.3587 1.89161C23.2385 1.84586 23.2343 2.03577 23.3504 2.26495C23.3772 2.31762 23.349 2.30006 23.2884 2.22613C23.1538 2.06164 23.1085 2.05795 23.0521 2.20488C23.0285 2.2668 23.0595 2.36891 23.1214 2.43082C23.1917 2.50106 23.2052 2.56159 23.1571 2.59162C23.114 2.61796 23.0794 2.60687 23.0794 2.56713C23.0794 2.52693 23.0123 2.47703 22.9309 2.45577C22.8278 2.42851 22.7949 2.44884 22.8227 2.52185C22.8467 2.58423 22.7815 2.66416 22.6626 2.71822C22.4795 2.80139 22.4286 2.87809 22.4536 3.03473C22.4582 3.06661 22.4365 3.08694 22.4046 3.08047C22.2339 3.04397 22.0808 3.19645 22.1224 3.36186C22.147 3.45843 22.1294 3.56101 22.0836 3.58919C22.0373 3.61784 21.9999 3.58688 21.9999 3.52081C21.9999 3.45473 21.9652 3.40067 21.9231 3.40067C21.8806 3.40067 21.8459 3.47183 21.8459 3.55916C21.8459 3.66081 21.8112 3.70008 21.7497 3.66866C21.6965 3.64186 21.7141 3.67005 21.789 3.73104C21.9092 3.82946 21.9115 3.85348 21.8084 3.93896C21.7279 4.0055 21.6919 4.00827 21.6919 3.94913C21.6919 3.90154 21.6276 3.92325 21.549 3.99718C21.4676 4.07481 21.4342 4.16352 21.4722 4.20511C21.5679 4.3123 21.5517 4.40471 21.4412 4.38253C21.388 4.37191 21.3524 4.40333 21.3616 4.45231C21.3709 4.50082 21.3279 4.56043 21.2664 4.58399C21.1248 4.63851 21.1512 4.47541 21.3061 4.3391C21.4093 4.249 21.4093 4.24115 21.3061 4.26795C21.2428 4.28458 21.153 4.37329 21.1068 4.46524C21.0605 4.55673 21.0046 4.61356 20.9828 4.59184C20.9606 4.56967 20.8945 4.61125 20.8353 4.68426C20.7423 4.79838 20.7437 4.80809 20.8436 4.75634C20.9075 4.72307 20.8728 4.77158 20.7669 4.86353C20.6609 4.95594 20.6216 5.00584 20.6804 4.97535C20.7516 4.93746 20.7738 4.95456 20.7479 5.02618C20.7266 5.08486 20.6623 5.12182 20.605 5.10842C20.5342 5.09132 20.5435 5.13014 20.6341 5.2304C20.7423 5.34961 20.7465 5.37687 20.6549 5.37687C20.593 5.37687 20.5601 5.34823 20.5819 5.31311C20.6036 5.27753 20.5541 5.24888 20.4713 5.24888C20.3756 5.24888 20.3252 5.2974 20.3321 5.38334C20.3395 5.47483 20.2965 5.51041 20.2003 5.49377C20.1203 5.48037 20.0782 5.50348 20.105 5.54645C20.1314 5.58849 20.1124 5.64764 20.0639 5.67813C20.0051 5.71417 20.0375 5.77008 20.1587 5.84262C20.334 5.94705 20.2387 5.93365 19.9381 5.81074C19.8789 5.78671 19.8419 5.8343 19.8419 5.93365C19.8419 6.03068 19.7924 6.09583 19.7188 6.09583C19.6513 6.09583 19.5773 6.16698 19.5547 6.25431C19.5269 6.36058 19.4728 6.39708 19.3909 6.36567C19.3234 6.33979 19.2929 6.34349 19.3234 6.37352C19.3535 6.40402 19.3067 6.47841 19.2193 6.53986C19.1319 6.60085 19.0787 6.69881 19.1014 6.75702C19.1241 6.8157 19.0732 6.90026 18.9885 6.94554C18.9044 6.99082 18.8498 7.05181 18.8678 7.08138C18.9118 7.15439 18.7143 7.33089 18.6551 7.27221C18.6107 7.22739 18.5774 7.37155 18.601 7.50694C18.6075 7.54205 18.5741 7.54667 18.5274 7.51802C18.4807 7.48938 18.3743 7.53882 18.2911 7.62799C18.2078 7.71717 18.1685 7.79017 18.2032 7.79017C18.274 7.79017 18.2754 8.14827 18.2051 8.21896C18.1662 8.25731 18.002 8.30259 17.8258 8.32338C17.7347 8.33401 17.0285 9.10564 17.0234 9.1999C17.0206 9.25026 17.0548 9.34359 17.0992 9.40736C17.1436 9.47066 17.0965 9.45356 16.9942 9.36855C16.8925 9.28399 16.8342 9.25811 16.8652 9.31079C16.8967 9.36485 16.8828 9.40736 16.8338 9.40736C16.7852 9.40736 16.7616 9.45033 16.781 9.50346C16.8005 9.5566 16.8578 9.59033 16.9087 9.57878C16.9596 9.56677 16.979 9.5931 16.9522 9.63654C16.9189 9.69013 16.8532 9.68875 16.7473 9.63238C16.5738 9.53951 16.5812 9.53627 16.4642 9.76129C16.4133 9.85832 16.4083 9.95073 16.4503 9.99278C16.4929 10.0353 16.4883 10.1088 16.4397 10.1781C16.3694 10.2774 16.3634 10.2765 16.3967 10.1707C16.4184 10.1023 16.3911 10.0491 16.3343 10.0491C16.2764 10.0491 16.2524 10.0981 16.2778 10.1642C16.3047 10.234 16.2894 10.2594 16.2399 10.2289C16.1946 10.2012 16.1368 10.2326 16.1113 10.2996C16.0443 10.4738 16.0531 10.5015 16.1534 10.4396C16.2099 10.4045 16.2214 10.4183 16.1853 10.477C16.1414 10.5482 16.1026 10.5486 16.0193 10.4798C15.9333 10.4086 15.9106 10.4151 15.9106 10.5121C15.9106 10.5796 15.8671 10.6239 15.814 10.611C15.7612 10.5981 15.7418 10.6013 15.7714 10.6184C15.8005 10.6355 15.8028 10.7076 15.776 10.7792C15.7335 10.8929 15.7436 10.8956 15.8593 10.8018C15.9319 10.7427 16.0063 10.7094 16.0244 10.7274C16.0429 10.7459 15.9892 10.8037 15.9051 10.8559C15.7806 10.9335 15.745 10.9303 15.7094 10.8383C15.6414 10.6609 15.4347 10.7847 15.493 10.9682C15.5323 11.092 15.5161 11.1146 15.4144 11.0754C15.3385 11.0463 15.3052 11.0573 15.3329 11.1022C15.3588 11.1442 15.3413 11.1784 15.2936 11.1784C15.2465 11.1784 15.2289 11.2131 15.2552 11.2556C15.2816 11.2976 15.2636 11.3323 15.2159 11.3323C15.1678 11.3323 15.0702 11.391 14.999 11.463C14.8778 11.585 14.8783 11.5901 15.0046 11.5425C15.1701 11.4797 15.1775 11.5365 15.0245 11.6894C14.9611 11.7527 14.8737 11.7823 14.8298 11.755C14.7863 11.7282 14.7553 11.7347 14.7613 11.7694C14.7914 11.9426 14.7433 12.0378 14.6443 11.9999C14.4852 11.9389 14.3048 12.1695 14.444 12.2555C14.5199 12.3021 14.4977 12.3266 14.3622 12.346C14.2354 12.3636 14.1832 12.4149 14.1984 12.5054C14.2128 12.5914 14.1836 12.6246 14.1166 12.5992C14.0592 12.577 13.945 12.6357 13.8627 12.7291C13.772 12.8326 13.7591 12.8732 13.8294 12.8326C13.9288 12.7753 13.9302 12.784 13.8391 12.8963C13.7808 12.9679 13.7572 13.0266 13.7868 13.0266C13.816 13.0266 13.7882 13.0784 13.7244 13.1421C13.661 13.2054 13.5731 13.2576 13.5292 13.2576C13.4182 13.2576 13.1328 13.576 13.1777 13.649C13.1985 13.6823 13.1745 13.734 13.125 13.765C13.0686 13.7996 13.0551 13.7872 13.0894 13.7317C13.1199 13.6827 13.1079 13.6425 13.063 13.6425C12.9381 13.6425 12.9659 13.8726 13.0968 13.923C13.1606 13.947 13.2124 14.0052 13.2124 14.0514C13.2124 14.1078 13.1819 14.105 13.1199 14.0431C13.0001 13.9235 12.7998 13.9216 12.8738 14.0408C12.9108 14.1009 12.8882 14.1152 12.8054 14.0833C12.7203 14.0505 12.6648 14.0889 12.6301 14.2049C12.6024 14.2982 12.5071 14.4313 12.4187 14.501C12.2606 14.6262 12.2619 14.6276 12.4849 14.6004C12.6093 14.5847 12.6509 14.5911 12.5765 14.6138C12.5025 14.6364 12.4419 14.6886 12.4419 14.7293C12.4419 14.7723 12.3734 14.7667 12.2777 14.7154C12.1251 14.6341 12.1158 14.6438 12.1468 14.8559C12.175 15.0453 12.1574 15.0777 12.0413 15.0472C11.9646 15.0273 11.9021 15.0495 11.9021 15.0971C11.9021 15.1442 11.8633 15.1742 11.8156 15.1636C11.6477 15.1262 11.6686 15.3124 11.842 15.4016L12.0178 15.4917L11.8249 15.4533C11.719 15.4325 11.676 15.4353 11.7291 15.4598C11.7823 15.4843 11.8064 15.5356 11.7828 15.5739C11.7574 15.615 13.7956 15.6428 16.8 15.6423L21.8607 15.6405L21.7386 15.4542C21.6502 15.3198 21.641 15.2528 21.7043 15.2135C21.7566 15.1812 21.7714 15.1932 21.7409 15.2426C21.6604 15.3729 21.8385 15.439 21.9717 15.3281C22.0785 15.2398 22.0767 15.2191 21.9518 15.1276C21.8292 15.0384 21.8436 15.0324 22.0693 15.0772C22.3121 15.1257 22.3232 15.1188 22.2737 14.9441C22.2413 14.8305 22.2473 14.7963 22.2885 14.8554C22.3417 14.9312 22.3879 14.927 22.5054 14.8365C22.6465 14.7274 22.6474 14.7159 22.5202 14.6401C22.4462 14.5953 22.3856 14.526 22.3856 14.4858C22.3856 14.4456 22.4462 14.4132 22.5202 14.4142C22.6358 14.4151 22.6386 14.4262 22.5396 14.4899C22.4453 14.5505 22.455 14.5648 22.5905 14.5657C22.7607 14.5666 22.7829 14.4645 22.6576 14.2589C22.5974 14.16 22.6058 14.1582 22.714 14.246C22.8472 14.3541 23.0368 14.3 22.9605 14.1762C22.936 14.1369 22.9702 14.1046 23.0359 14.1046C23.1797 14.1046 23.1954 13.9817 23.0599 13.9188C22.9827 13.8828 22.9827 13.8648 23.0599 13.8287C23.1131 13.8043 23.1575 13.7262 23.1589 13.6555C23.1612 13.5594 23.1862 13.5709 23.2593 13.7026C23.3564 13.8773 23.3573 13.8768 23.4887 13.6023C23.5608 13.4508 23.6547 13.3477 23.6968 13.3736C23.7384 13.3995 23.7731 13.3667 23.7731 13.3006C23.7731 13.2345 23.8096 13.1805 23.8545 13.1805C23.8994 13.1805 23.9137 13.144 23.886 13.0992C23.8536 13.0474 23.7939 13.0682 23.7227 13.1569C23.6177 13.2868 23.6154 13.2854 23.6889 13.1329C23.7319 13.0433 23.7426 12.9425 23.7125 12.9088C23.682 12.8755 23.7093 12.8783 23.7731 12.9157C23.941 13.0146 24.1584 13.0368 24.1584 12.9555C24.1584 12.9171 24.1149 12.8681 24.0622 12.8464C23.9849 12.8155 23.9849 12.8067 24.0622 12.8016C24.2476 12.79 24.4595 12.5119 24.3628 12.407C24.2953 12.334 24.2971 12.3238 24.3702 12.3654C24.4262 12.3968 24.4673 12.377 24.4678 12.3188C24.4687 12.2457 24.4895 12.2494 24.5436 12.3335C24.6176 12.4477 24.6616 12.3594 24.6301 12.1603C24.625 12.1284 24.6643 12.1016 24.7171 12.0997C24.9349 12.0942 25.1847 11.8008 25.0792 11.6742C25.0246 11.6086 25.0121 11.561 25.051 11.5684C25.2411 11.6044 25.4011 11.5536 25.3692 11.4672C25.3498 11.4141 25.2984 11.3785 25.255 11.3877C25.2119 11.3965 25.1944 11.3355 25.2161 11.2514C25.2674 11.055 25.3775 10.9857 25.3636 11.1581C25.3502 11.3295 25.557 11.336 25.6809 11.1678C25.8118 10.9899 25.7244 10.7547 25.5736 10.8795C25.4867 10.9515 25.4746 10.9441 25.514 10.843C25.5708 10.6942 25.5861 10.6914 25.7831 10.7963C25.9085 10.8637 25.9445 10.8448 26.007 10.6808C26.0481 10.5736 26.1018 10.4853 26.1268 10.4853C26.1513 10.4853 26.1504 10.5195 26.1245 10.5616C26.0972 10.6055 26.1291 10.6179 26.2003 10.5902C26.3122 10.5477 26.3122 10.5311 26.1975 10.404C26.0791 10.2737 26.0814 10.2677 26.2318 10.307C26.3502 10.3379 26.4112 10.3014 26.4653 10.167C26.5056 10.0667 26.5402 10.0348 26.543 10.0958C26.5467 10.1771 26.5763 10.1679 26.6549 10.0607C26.7137 9.97984 26.7428 9.86387 26.7188 9.80195C26.6933 9.73542 26.7091 9.71047 26.7572 9.74004C26.8686 9.80888 27.0069 9.62683 27.0268 9.38564C27.0356 9.2766 27.0791 9.19343 27.123 9.20082C27.1674 9.20868 27.1928 9.14537 27.1808 9.06082C27.1637 8.94577 27.1762 8.93329 27.2289 9.01138C27.3422 9.1791 27.6512 9.04465 27.5998 8.84966C27.5688 8.73137 27.5809 8.71382 27.647 8.77989C27.7617 8.89494 86.033 8.90557 86.2106 8.79098C86.2874 8.74154 86.2939 8.71613 86.2296 8.7152C86.1768 8.71474 86.1334 8.67732 86.1334 8.6325C86.1334 8.58768 86.1593 8.56688 86.1912 8.58675C86.2231 8.60616 86.249 6.93076 86.249 4.86353C86.249 2.79631 86.2231 1.1209 86.1912 1.14077C86.1593 1.16018 86.1334 1.12229 86.1334 1.05622C86.1334 0.990144 86.0968 0.936084 86.0515 0.936084C86.0066 0.936084 85.9914 0.970738 86.0177 1.01325C86.0441 1.05576 86.0316 1.09041 85.99 1.09041C85.9488 1.09041 85.8975 1.04698 85.8762 0.99384C85.8494 0.928229 85.8351 0.934235 85.8309 1.01325C85.8258 1.11582 82.3691 1.12645 55.1264 1.10889C34.8685 1.09595 24.4349 1.06315 24.4474 1.01278C24.4581 0.970738 24.4146 0.936084 24.3512 0.936084C24.2874 0.936084 24.2439 0.979516 24.2546 1.03265ZM91.1052 1.065C90.9804 1.1648 90.9767 1.17912 91.0858 1.1417C91.2842 1.07331 91.2505 1.16018 91.0474 1.24196C90.8809 1.30896 90.8823 1.31173 91.0858 1.31635L91.2981 1.32144L91.2787 45.6207L91.2597 89.9201L91.2209 45.6397C91.1996 21.2858 91.1737 1.45728 91.1631 1.57603C91.1524 1.69708 91.1099 1.77148 91.0669 1.74468C91.0183 1.7151 90.9915 1.87775 90.9952 2.18316C90.9989 2.52601 91.0201 2.6235 91.0669 2.51492C91.1039 2.42898 91.1353 21.6134 91.1385 46.0486C91.1418 75.1556 91.1182 89.7204 91.0669 89.689C91.0192 89.6595 90.9901 89.7842 90.991 90.0115C90.9915 90.2791 91.0127 90.3498 91.0669 90.2666C91.127 90.1733 91.1418 90.1839 91.1427 90.3243C91.1432 90.4195 91.115 90.4976 91.0793 90.4976C91.0442 90.4976 91.0155 90.5494 91.0155 90.6131C91.0155 90.6764 91.0456 90.7286 91.083 90.7286C91.12 90.7286 91.1404 90.7892 91.1279 90.8631C91.1117 90.9587 91.1617 91.0026 91.2981 91.0137L91.4905 91.029L91.2981 90.9634C91.1922 90.9273 91.1506 90.8945 91.2061 90.8904C91.2616 90.8857 91.2856 90.8478 91.2593 90.8053C91.2278 90.7541 101.524 90.7286 122.088 90.7286C139.07 90.7286 152.965 90.7545 152.965 90.7864C152.967 90.944 153.33 91.0105 153.418 90.8686C153.499 90.7379 153.486 90.7296 153.259 90.7693C153.013 90.8127 153.012 90.8118 153.154 90.6552C153.324 90.4667 153.361 90.457 153.3 90.6154C153.267 90.7018 153.329 90.6866 153.53 90.5577C153.809 90.3802 153.914 90.2111 153.693 90.2957C153.62 90.3239 153.593 90.31 153.624 90.2601C153.651 90.2158 153.72 90.1964 153.776 90.2181C153.919 90.2726 154.083 90.0688 153.959 89.9917C153.896 89.9533 153.886 89.9672 153.928 90.0356C153.97 90.1021 153.96 90.1178 153.902 90.0813C153.753 89.9894 153.802 89.8678 153.967 89.9201C154.053 89.9473 154.121 89.9339 154.121 89.8891C154.121 89.8452 154.216 89.7574 154.333 89.6946C154.449 89.6313 154.512 89.5781 154.472 89.5763C154.433 89.5749 154.467 89.519 154.549 89.452C154.631 89.3855 154.656 89.3526 154.603 89.3794C154.55 89.4067 154.506 89.3956 154.506 89.3559C154.506 89.3161 154.574 89.2658 154.657 89.2441C154.774 89.2136 154.799 89.1558 154.771 88.9849C154.749 88.8564 154.76 88.8042 154.797 88.8592C154.871 88.9696 155.351 88.6753 155.353 88.5186C155.353 88.4683 155.432 88.3722 155.528 88.3056C155.623 88.2386 155.705 88.1504 155.711 88.1088C155.716 88.0672 155.725 87.9998 155.73 87.9586C155.735 87.9175 155.798 87.9064 155.869 87.9332C155.966 87.9706 155.986 87.9517 155.949 87.8565C155.922 87.7868 155.939 87.7064 155.986 87.6772C156.043 87.6426 156.05 87.6611 156.009 87.7327C155.974 87.7918 156.038 87.7438 156.151 87.625C156.399 87.364 156.403 87.34 156.191 87.3806C156.101 87.3982 156.05 87.3894 156.078 87.3612C156.106 87.3335 156.2 87.2997 156.287 87.2863C156.557 87.2452 156.694 87.0586 156.531 86.9537C156.413 86.8779 156.412 86.8714 156.525 86.9065C156.605 86.9315 156.668 86.8968 156.69 86.816C156.72 86.7014 156.725 86.7028 156.733 86.8257C156.741 86.9532 156.753 86.9551 156.862 86.8456C156.929 86.7795 156.957 86.6843 156.927 86.6344C156.889 86.5734 156.912 86.5595 156.998 86.5923C157.093 86.6293 157.12 86.6007 157.106 86.4754C157.095 86.3701 157.151 86.2777 157.262 86.2213C157.356 86.1728 157.412 86.11 157.384 86.0818C157.356 86.0541 157.373 86.031 157.423 86.031C157.472 86.031 157.512 85.9787 157.512 85.9154C157.512 85.8517 157.568 85.7999 157.636 85.7999C157.713 85.7999 157.744 85.7574 157.717 85.6886C157.692 85.6216 157.733 85.5583 157.821 85.5305C157.965 85.4848 158.103 85.2201 158.062 85.0685C158.05 85.026 158.085 85.0348 158.139 85.0874C158.271 85.2168 158.361 85.209 158.361 85.0685C158.361 85.0047 158.412 84.953 158.476 84.953C158.54 84.953 158.592 84.904 158.592 84.8439C158.592 84.7839 158.713 84.6106 158.86 84.4591C159.008 84.307 159.095 84.1827 159.053 84.1827C159.011 84.1827 158.977 84.1458 158.977 84.101C158.977 84.0557 159.038 84.0252 159.112 84.0326C159.352 84.0571 159.383 84.0312 159.275 83.8986C159.218 83.827 159.21 83.7923 159.259 83.8219C159.39 83.9 159.59 83.802 159.545 83.6828C159.523 83.625 159.574 83.559 159.663 83.5308C159.785 83.492 159.815 83.4282 159.794 83.2508C159.78 83.1246 159.785 83.0387 159.805 83.0595C159.858 83.1117 160.056 82.9047 160.056 82.7975C160.056 82.7495 160.094 82.7333 160.139 82.7615C160.193 82.7947 160.165 82.8733 160.062 82.9828C159.839 83.2198 159.862 83.2928 160.095 83.0904C160.201 82.998 160.287 82.877 160.287 82.8211C160.287 82.7652 160.335 82.7194 160.394 82.7194C160.56 82.7194 160.759 82.3743 160.654 82.2698C160.592 82.207 160.613 82.1927 160.735 82.2162C160.919 82.2514 161.165 81.9829 161.078 81.842C160.984 81.6904 160.999 81.4834 161.098 81.5652C161.148 81.6063 161.203 81.6317 161.221 81.6216C161.238 81.6114 161.203 81.6461 161.141 81.6992C161.076 81.7551 161.065 81.7953 161.115 81.7953C161.237 81.7953 161.453 81.5652 161.405 81.4867C161.383 81.4511 161.433 81.3998 161.518 81.373C161.698 81.3157 162.003 80.9165 161.926 80.8393C161.896 80.8102 161.941 80.8121 162.024 80.843C162.156 80.8929 162.163 80.8841 162.075 80.7765C161.987 80.6679 161.997 80.6582 162.152 80.6984C162.311 80.7391 162.319 80.7298 162.225 80.6162C162.167 80.5455 162.09 80.5066 162.053 80.5297C162.015 80.5524 162.008 80.5108 162.037 80.4364C162.069 80.3528 162.1 80.3371 162.12 80.3944C162.137 80.4457 162.188 80.4646 162.233 80.4364C162.285 80.4041 162.293 80.4226 162.253 80.4863C162.212 80.5529 162.221 80.5686 162.28 80.5321C162.391 80.4632 162.397 80.2553 162.287 80.2553C162.242 80.2553 162.23 80.2156 162.26 80.1666C162.299 80.1042 162.343 80.1162 162.41 80.2072C162.493 80.3209 162.51 80.3223 162.55 80.2193C162.575 80.1541 162.561 80.1014 162.52 80.1014C162.48 80.1014 162.446 80.07 162.446 80.0317C162.446 79.9933 162.515 79.9799 162.6 80.0021C162.707 80.0298 162.754 80.0044 162.754 79.9175C162.754 79.8491 162.78 79.8011 162.812 79.8103C162.942 79.8492 163.47 79.2697 163.421 79.1422C163.393 79.0687 163.333 79.0373 163.283 79.0687C163.226 79.1034 163.214 79.0905 163.249 79.0336C163.279 78.9842 163.343 78.9671 163.389 78.9962C163.445 79.0304 163.456 79.0008 163.421 78.9093C163.375 78.7901 163.385 78.7846 163.488 78.8705C163.555 78.9255 163.59 79.0258 163.567 79.0932C163.538 79.1759 163.562 79.1672 163.64 79.066C163.731 78.9491 163.735 78.9033 163.66 78.8557C163.591 78.8118 163.602 78.7943 163.698 78.7934C163.773 78.7924 163.833 78.7555 163.833 78.7106C163.833 78.6658 163.801 78.6487 163.762 78.6732C163.722 78.6977 163.665 78.6769 163.634 78.6275C163.597 78.567 163.612 78.5582 163.68 78.6002C163.755 78.646 163.769 78.6284 163.733 78.5351C163.669 78.3673 163.751 78.371 163.876 78.5415C163.993 78.7019 164.034 78.6732 164.108 78.3761C164.152 78.2033 164.141 78.1668 164.064 78.2149C163.999 78.2551 163.982 78.2467 164.016 78.1913C164.046 78.1442 164.126 78.1275 164.195 78.1539C164.279 78.1862 164.303 78.1724 164.265 78.1123C164.234 78.061 164.253 78.0217 164.311 78.0208C164.385 78.0199 164.381 77.9982 164.296 77.939C164.205 77.8757 164.218 77.8683 164.354 77.9067C164.456 77.9353 164.527 77.9215 164.527 77.8734C164.527 77.8281 164.593 77.7912 164.673 77.7912C164.765 77.7912 164.837 77.7186 164.868 77.5953C164.895 77.4876 164.951 77.4206 164.992 77.446C165.033 77.4714 165.067 77.4386 165.067 77.373C165.067 77.2224 165.305 76.9391 165.388 76.9904C165.422 77.0117 165.429 76.9747 165.404 76.9086C165.371 76.8213 165.392 76.801 165.482 76.8356C165.564 76.8675 165.606 76.8417 165.606 76.7594C165.606 76.6915 165.658 76.636 165.721 76.636C165.913 76.636 165.895 15.415 165.703 15.4113C165.563 15.409 165.209 15.183 165.345 15.183C165.387 15.183 165.462 15.2237 165.513 15.274C165.563 15.3239 165.628 15.341 165.658 15.311C165.688 15.2814 165.601 15.2154 165.466 15.1645C165.331 15.1137 165.221 15.043 165.221 15.0074C165.221 14.9719 165.259 14.9663 165.305 14.995C165.367 15.0328 165.367 15.0033 165.305 14.8882C165.258 14.8009 165.177 14.7034 165.124 14.672C165.053 14.629 165.054 14.6461 165.128 14.7376C165.206 14.8328 165.207 14.8744 165.136 14.9183C165.077 14.9548 165.063 14.9432 165.098 14.8864C165.129 14.8365 165.102 14.7769 165.038 14.7524C164.974 14.7279 164.939 14.6655 164.959 14.6133C164.979 14.5611 164.918 14.4516 164.825 14.3693C164.732 14.2876 164.679 14.2612 164.708 14.3111C164.737 14.361 164.717 14.4276 164.663 14.4585C164.609 14.489 164.592 14.4858 164.624 14.4507C164.656 14.4155 164.621 14.3171 164.547 14.2326C164.472 14.1476 164.455 14.1037 164.508 14.1346C164.561 14.1656 164.604 14.155 164.604 14.1106C164.604 14.0667 164.52 14.0094 164.417 13.984C164.282 13.9498 164.238 13.8944 164.26 13.7825C164.282 13.6684 164.258 13.6407 164.169 13.6749C164.083 13.7077 164.06 13.6874 164.092 13.606C164.117 13.539 164.097 13.4984 164.042 13.509C163.991 13.5187 163.956 13.4873 163.966 13.4378C163.987 13.327 163.47 12.7674 163.236 12.6477C163.103 12.5798 163.062 12.5807 163.062 12.6519C163.062 12.7027 163.04 12.7221 163.013 12.6949C162.986 12.6676 163.003 12.5978 163.051 12.5401C163.165 12.4033 163.07 12.3086 162.933 12.4223C162.849 12.492 162.839 12.4814 162.881 12.3705C162.921 12.267 162.908 12.2476 162.833 12.2943C162.765 12.3363 162.749 12.3275 162.785 12.2684C162.87 12.1316 162.761 12.0013 162.643 12.0984C162.569 12.1598 162.545 12.1247 162.54 11.9491C162.53 11.6201 162.452 11.5263 162.325 11.6936C162.267 11.7703 162.216 11.7985 162.211 11.756C162.207 11.7135 162.191 11.6183 162.177 11.5439C162.162 11.4672 162.185 11.4298 162.229 11.457C162.272 11.4838 162.249 11.4164 162.178 11.3082C162.102 11.1923 162.003 11.128 161.939 11.153C161.871 11.1789 161.829 11.1461 161.829 11.0657C161.829 10.9945 161.772 10.8799 161.704 10.8106C161.587 10.6946 161.581 10.6979 161.631 10.8545C161.664 10.9571 161.653 11.0245 161.603 11.0245C161.558 11.0245 161.53 10.9811 161.54 10.928C161.551 10.8753 161.51 10.8425 161.45 10.8554C161.356 10.8758 161.356 10.861 161.449 10.7482C161.548 10.6295 161.541 10.6226 161.37 10.6771C161.19 10.7339 161.187 10.7302 161.316 10.6018C161.466 10.4521 161.285 10.1231 161.112 10.2303C161.063 10.2603 161.051 10.2298 161.081 10.1513C161.113 10.069 161.092 10.0233 161.021 10.0233C160.961 10.0233 160.881 9.96829 160.843 9.90083C160.805 9.83337 160.752 9.78162 160.724 9.78532C160.696 9.78901 160.669 9.76637 160.665 9.73449C160.636 9.51317 160.503 9.40135 160.385 9.49838C160.276 9.58848 160.272 9.58109 160.352 9.43092C160.454 9.23963 160.406 9.19019 160.141 9.2133C159.968 9.22808 159.965 9.22254 160.099 9.12551C160.217 9.0391 160.223 9.00537 160.137 8.92544C160.053 8.84781 160.045 8.85151 160.096 8.9453C160.13 9.00861 160.067 8.97765 159.955 8.876C159.844 8.77481 159.776 8.65329 159.804 8.60662C159.833 8.5581 159.804 8.56226 159.737 8.61679C159.644 8.6921 159.619 8.6921 159.616 8.61679C159.609 8.40193 159.543 8.2781 159.304 8.03599C159.166 7.89598 159.021 7.80126 158.982 7.82575C158.943 7.84978 158.889 7.83453 158.862 7.7911C158.836 7.74813 158.857 7.71301 158.91 7.71301C158.965 7.71301 158.941 7.66034 158.857 7.59195C158.775 7.52496 158.757 7.49631 158.818 7.52773C158.878 7.55961 158.831 7.45796 158.712 7.30271C158.593 7.147 158.479 7.01993 158.457 7.01993C158.436 7.01993 158.462 7.07214 158.515 7.13545C158.575 7.20845 158.58 7.25096 158.528 7.25096C158.484 7.25096 158.425 7.21584 158.398 7.17287C158.372 7.12944 158.309 7.11742 158.259 7.14561C158.197 7.1798 158.199 7.16271 158.264 7.09294C158.404 6.94185 158.382 6.87069 158.206 6.90442C158.121 6.92059 158.052 6.89934 158.052 6.85683C158.052 6.81432 158.022 6.79861 157.984 6.82217C157.946 6.84528 157.899 6.77874 157.879 6.67478C157.859 6.57082 157.873 6.50382 157.909 6.52646C157.946 6.54864 157.902 6.44283 157.812 6.29081C157.673 6.05517 157.631 6.02883 157.528 6.11292C157.425 6.19655 157.414 6.19101 157.457 6.07642C157.494 5.97708 157.468 5.94196 157.358 5.94196C157.262 5.94196 157.224 5.90361 157.251 5.83384C157.277 5.76546 157.244 5.73034 157.16 5.73774C157.087 5.7442 157.013 5.69708 156.995 5.63377C156.965 5.53166 156.97 5.53166 157.041 5.63331C157.093 5.70816 157.146 5.72156 157.192 5.67166C157.237 5.62361 157.205 5.53813 157.107 5.4411C157.02 5.35654 156.974 5.33067 157.004 5.38334C157.035 5.43648 157.043 5.47991 157.023 5.47991C157.004 5.47991 156.915 5.35654 156.826 5.20591C156.737 5.05482 156.634 4.95086 156.596 4.97443C156.53 5.01416 156.398 4.8067 156.419 4.69812C156.424 4.67086 156.351 4.66254 156.257 4.6801C156.163 4.69719 156.129 4.69072 156.182 4.66577C156.306 4.60709 156.116 4.40148 155.938 4.40148C155.871 4.40148 155.82 4.34095 155.823 4.26702C155.827 4.18616 155.845 4.17091 155.868 4.22821C155.889 4.28135 155.938 4.32478 155.978 4.32478C156.017 4.32478 156.007 4.25686 155.956 4.17461C155.889 4.06926 155.834 4.04755 155.769 4.10114C155.709 4.15105 155.66 4.15151 155.63 4.10253C155.604 4.06095 155.619 4.00504 155.662 3.97824C155.706 3.95098 155.722 3.89599 155.697 3.85579C155.672 3.81606 155.619 3.80312 155.58 3.82715C155.541 3.85164 155.508 3.81744 155.508 3.75183C155.508 3.68576 155.474 3.6317 155.431 3.6317C155.389 3.6317 155.354 3.58087 155.354 3.5185C155.354 3.45242 155.309 3.42285 155.244 3.44734C155.18 3.47183 155.096 3.41823 155.043 3.31797C154.964 3.17011 154.968 3.15301 155.075 3.19367C155.255 3.26298 155.229 3.19044 155.037 3.0874C154.937 3.03427 154.892 3.03103 154.922 3.07955C154.949 3.12298 154.931 3.18397 154.881 3.21447C154.83 3.24589 154.811 3.23711 154.838 3.19413C154.905 3.08601 154.668 2.7709 154.566 2.83373C154.516 2.86469 154.505 2.84944 154.538 2.79492C154.569 2.74548 154.635 2.73023 154.685 2.76073C154.735 2.79123 154.719 2.73116 154.649 2.6272C154.579 2.52323 154.466 2.44284 154.398 2.44838C154.324 2.45485 154.275 2.39987 154.275 2.3093C154.275 2.2266 154.242 2.17993 154.2 2.20534C154.159 2.23076 154.074 2.1291 154.012 1.97894C153.883 1.67029 153.795 1.62038 153.838 1.8796C153.854 1.97478 153.852 2.00943 153.834 1.95676C153.816 1.90362 153.774 1.86019 153.74 1.86019C153.706 1.86019 153.682 1.78256 153.687 1.68692C153.693 1.58619 153.657 1.52197 153.601 1.53306C153.511 1.55108 153.469 1.4522 153.498 1.29233C153.505 1.25536 153.425 1.2415 153.321 1.26137C153.171 1.29002 153.138 1.26876 153.159 1.15972C153.177 1.06638 153.15 1.03589 153.075 1.06453C153.014 1.08764 152.965 1.06823 152.965 1.0211C152.965 0.86539 91.3004 0.908822 91.1052 1.065ZM152.772 1.08949C152.547 1.18559 91.7037 1.18559 91.6445 1.08995C91.6131 1.03912 101.946 1.01509 122.262 1.01879C139.2 1.02156 152.857 1.05345 152.772 1.08949ZM91.028 46.1406C91.028 70.0074 91.0368 79.7711 91.0474 67.8376C91.0581 55.9042 91.0581 36.3765 91.0474 24.443C91.0368 12.5096 91.028 22.2732 91.028 46.1406ZM19.3021 6.92429C19.3021 6.99914 19.2351 7.10171 19.1527 7.153C19.008 7.24356 19.0075 7.23941 19.1338 7.01808C19.285 6.75194 19.3021 6.7427 19.3021 6.92429ZM17.9331 8.09698C17.854 8.22404 17.8628 8.23836 18.0043 8.2111C18.2222 8.16906 18.2453 8.13533 18.1251 8.03599C18.0492 7.97269 18.0011 7.98793 17.9331 8.09698ZM159.384 8.27117C159.412 8.34556 159.401 8.40609 159.36 8.40609C159.319 8.40609 159.286 8.36081 159.286 8.30536C159.286 8.24992 159.207 8.17044 159.112 8.12793C159.016 8.08589 158.982 8.06094 159.035 8.07249C159.088 8.08404 159.131 8.05724 159.131 8.01335C159.131 7.90754 159.318 8.09883 159.384 8.27117ZM17.8337 8.6251C17.7722 8.64543 17.6838 8.71382 17.6371 8.77666C17.5691 8.86907 17.5405 8.87184 17.4905 8.79098C17.4517 8.72814 17.4586 8.7092 17.5086 8.73969C17.5525 8.76695 17.6071 8.72029 17.6288 8.63573C17.6579 8.5253 17.7079 8.49711 17.8073 8.53546C17.9165 8.57751 17.922 8.59599 17.8337 8.6251ZM98.5959 8.68794C98.5681 8.71567 98.5811 8.78174 98.6255 8.83488C98.681 8.90187 98.6805 8.94669 98.6246 8.98135C98.5686 9.016 98.5436 20.3294 98.5436 46.111C98.5436 66.5051 98.5728 83.1727 98.6079 83.151C98.6435 83.1293 98.6722 83.1621 98.6722 83.2235C98.6722 83.3732 98.5723 83.3663 98.5131 83.2133C98.4493 83.0465 98.4544 8.75217 98.5187 8.68794C98.5464 8.66022 98.5866 8.63712 98.6079 8.63712C98.6292 8.63712 98.6236 8.65976 98.5959 8.68794ZM149.631 8.80392C149.62 8.85336 149.698 8.93976 149.804 8.99567C149.91 9.05112 149.962 9.09824 149.92 9.10055C149.877 9.1024 149.903 9.13937 149.978 9.18234C150.052 9.22531 150.112 9.29647 150.112 9.33944C150.112 9.38287 150.171 9.4762 150.243 9.54736C150.365 9.66842 150.37 9.66796 150.323 9.54182C150.295 9.46789 150.305 9.40736 150.346 9.40736C150.387 9.40736 150.421 9.48637 150.421 9.58294C150.421 9.68367 150.536 9.86664 150.69 10.0126C150.839 10.1522 150.961 10.2987 150.961 10.3375C150.961 10.3763 151.006 10.4082 151.063 10.4082C151.12 10.4082 151.212 10.495 151.269 10.6008C151.326 10.7067 151.422 10.7935 151.484 10.7935C151.569 10.7935 151.575 10.8185 151.51 10.8966C151.444 10.976 151.468 11.0227 151.616 11.1017C151.722 11.1581 151.808 11.2352 151.808 11.2731C151.808 11.3106 151.843 11.3203 151.885 11.2944C151.927 11.2685 152.022 11.2847 152.097 11.33C152.218 11.4043 152.219 11.4108 152.102 11.3919C152.031 11.3803 151.979 11.4057 151.987 11.4478C151.995 11.4903 152.026 11.5166 152.056 11.5065C152.086 11.4968 152.089 11.5457 152.062 11.6155C152.029 11.701 152.043 11.7246 152.103 11.6871C152.153 11.6566 152.194 11.6631 152.194 11.7015C152.194 11.8442 152.58 12.188 152.676 12.1307C152.747 12.0877 152.746 12.1044 152.672 12.1963C152.536 12.364 152.838 12.5964 153.046 12.4851C153.194 12.4065 153.211 12.5105 153.085 12.7124C153.033 12.7951 153.048 12.8099 153.145 12.7725C153.215 12.7457 153.273 12.7568 153.273 12.7979C153.273 12.839 153.234 12.8728 153.187 12.8728C153.126 12.8728 153.129 12.9079 153.195 12.9873C153.306 13.1209 153.439 13.0701 153.38 12.9166C153.358 12.8584 153.378 12.7877 153.424 12.7586C153.481 12.724 153.497 12.7725 153.474 12.9037C153.454 13.0123 153.471 13.1213 153.511 13.1463C153.551 13.1708 153.56 13.229 153.532 13.2747C153.5 13.3265 153.516 13.3362 153.575 13.3002C153.634 13.2632 153.66 13.2826 153.644 13.3533C153.598 13.5631 154.153 14.1124 154.261 13.9632C154.343 13.8477 154.351 13.85 154.343 13.9891C154.338 14.0741 154.343 14.1693 154.353 14.2012C154.363 14.2326 154.376 14.2936 154.381 14.3356C154.386 14.3781 154.417 14.4128 154.448 14.4128C154.48 14.4128 154.56 14.4128 154.626 14.4128C154.698 14.4128 154.724 14.3767 154.692 14.3241C154.658 14.27 154.67 14.2557 154.722 14.288C154.769 14.3171 154.789 14.3897 154.766 14.4493C154.743 14.5089 154.761 14.6202 154.806 14.6969C154.851 14.7736 154.888 14.7986 154.89 14.7528C154.89 14.7071 154.944 14.6697 155.007 14.6697C155.11 14.6697 155.11 14.6845 155.011 14.794C154.909 14.9058 154.918 14.9206 155.094 14.9349C155.411 14.9612 155.601 15.183 155.306 15.183C155.204 15.183 155.198 15.2038 155.276 15.2976C155.329 15.3604 155.408 15.3896 155.453 15.3618C155.504 15.3309 155.516 15.3595 155.486 15.4376C155.459 15.5069 155.481 15.5905 155.533 15.6238C155.585 15.6566 155.685 15.7703 155.757 15.8761C155.902 16.0937 156.479 16.7341 156.403 16.5937C156.376 16.5438 156.398 16.4772 156.451 16.4463C156.505 16.4158 156.527 16.4153 156.499 16.4458C156.432 16.5211 156.542 16.9139 156.632 16.9222C156.771 16.9351 156.973 17.0483 156.973 17.1139C156.973 17.1504 156.912 17.1592 156.838 17.1338C156.729 17.0964 156.732 17.1098 156.857 17.2063C156.941 17.272 157.036 17.3089 157.068 17.2891C157.101 17.2692 157.127 17.3029 157.127 17.3639C157.127 17.4244 157.205 17.5321 157.301 17.6028C157.396 17.6735 157.422 17.7072 157.358 17.6781C157.266 17.6356 157.262 17.6453 157.336 17.7248C157.409 17.8038 157.453 17.8056 157.541 17.7326C157.628 17.6601 157.665 17.6601 157.71 17.7322C157.745 17.7876 157.735 17.8047 157.687 17.7751C157.541 17.685 157.523 17.9295 157.665 18.0519C157.771 18.142 157.827 18.1494 157.894 18.0824C157.962 18.0154 157.971 18.0283 157.93 18.1374C157.883 18.2575 157.901 18.2723 158.041 18.2284C158.14 18.197 158.206 18.209 158.206 18.258C158.206 18.3033 158.144 18.3402 158.068 18.3402C157.97 18.3402 157.925 18.4077 157.913 18.5768C157.902 18.7205 157.925 18.7944 157.973 18.7653C158.025 18.733 158.045 27.5305 158.032 45.6549L158.014 72.5931L157.975 45.8324L157.935 19.0717L157.936 46.1017C157.936 62.3942 157.965 73.1905 158.007 73.2792C158.059 73.3859 158.053 73.4114 157.988 73.3712C157.93 73.3351 157.898 73.3735 157.898 73.477C157.898 73.5662 157.831 73.7108 157.75 73.7981C157.668 73.8859 157.62 74.0056 157.642 74.0647C157.666 74.1262 157.635 74.1714 157.569 74.1714C157.506 74.1714 157.407 74.2301 157.349 74.3017C157.257 74.4145 157.258 74.4228 157.358 74.3641C157.458 74.3054 157.459 74.3142 157.369 74.4256C157.311 74.4967 157.227 74.5328 157.184 74.505C157.133 74.4736 157.119 74.5175 157.147 74.6233C157.18 74.7495 157.159 74.786 157.065 74.7703C156.986 74.7569 156.889 74.8544 156.801 75.0378C156.712 75.2245 156.61 75.3266 156.514 75.3266C156.432 75.3266 156.34 75.3672 156.309 75.4167C156.273 75.4763 156.295 75.4911 156.373 75.461C156.463 75.4264 156.483 75.4536 156.453 75.5696C156.425 75.675 156.366 75.7124 156.268 75.6865C156.19 75.6662 156.144 75.6805 156.168 75.7189C156.192 75.7572 156.157 75.7886 156.091 75.7886C156.025 75.7886 155.971 75.8256 155.971 75.8704C155.971 75.9152 155.998 75.9351 156.032 75.9143C156.155 75.8385 156.111 76.1666 155.985 76.265C155.868 76.3565 155.866 76.3528 155.963 76.2299C156.022 76.1546 156.045 76.0682 156.015 76.0377C155.984 76.0076 155.925 76.0437 155.883 76.1185C155.841 76.1929 155.777 76.2354 155.74 76.2128C155.704 76.1902 155.648 76.2119 155.617 76.2613C155.582 76.3177 155.595 76.3311 155.651 76.2969C155.703 76.2645 155.74 76.29 155.74 76.3593C155.74 76.4323 155.696 76.46 155.624 76.4327C155.548 76.4036 155.507 76.4369 155.502 76.5316C155.498 76.6249 155.482 76.6383 155.455 76.5704C155.426 76.4988 155.37 76.5325 155.272 76.6813C155.195 76.7991 155.149 76.9248 155.172 76.9604C155.193 76.9955 155.183 77.02 155.148 77.0135C155.013 76.9904 154.868 77.0232 154.913 77.0671C154.938 77.093 154.867 77.1928 154.754 77.2894C154.57 77.4479 154.561 77.4788 154.663 77.6045C154.731 77.6877 154.737 77.7205 154.68 77.6858C154.616 77.6475 154.583 77.6784 154.583 77.7768C154.583 77.8591 154.523 77.9737 154.448 78.0319C154.331 78.1238 154.325 78.1225 154.399 78.0222C154.545 77.8235 154.581 77.5657 154.456 77.6137C154.395 77.6368 154.359 77.6946 154.374 77.7422C154.407 77.8406 154.248 78.0222 154.129 78.0222C154.024 78.0222 153.901 78.2657 153.945 78.3877C153.966 78.4468 153.91 78.4852 153.8 78.4865C153.622 78.4889 153.622 78.4907 153.774 78.6099L153.928 78.731L153.774 78.6862C153.617 78.6409 153.389 78.7365 153.389 78.8483C153.389 78.8825 153.257 79.0336 153.097 79.1847C152.923 79.3492 152.823 79.5045 152.849 79.5715C152.877 79.6463 152.836 79.6874 152.723 79.6957C152.564 79.7078 152.429 79.833 152.426 79.9711C152.425 80.0053 152.465 80.0086 152.514 79.9785C152.569 79.9443 152.582 79.9573 152.548 80.0123C152.518 80.0612 152.447 80.1014 152.391 80.1014C152.334 80.1014 152.293 80.162 152.299 80.2359C152.306 80.3209 152.263 80.3634 152.183 80.35C152.114 80.3389 152.037 80.3824 152.012 80.4466C151.987 80.5108 152.003 80.5635 152.047 80.5635C152.09 80.5635 152.105 80.5963 152.08 80.6369C152.055 80.6776 151.98 80.6896 151.912 80.6637C151.806 80.6231 151.803 80.6406 151.889 80.8019C151.979 80.9706 151.977 80.9775 151.86 80.8814C151.723 80.7691 151.679 80.8652 151.807 80.9937C151.857 81.0436 151.831 81.0745 151.73 81.0842C151.418 81.1138 151.355 81.129 151.359 81.1729C151.38 81.3642 151.322 81.4756 151.184 81.5116C151.079 81.5389 151.043 81.5879 151.081 81.6493C151.122 81.7158 151.101 81.7297 151.011 81.6955C150.918 81.6595 150.883 81.6886 150.883 81.8022C150.883 81.9021 150.851 81.9385 150.793 81.903C150.732 81.8651 150.719 81.8896 150.754 81.9792C150.784 82.0578 150.774 82.0924 150.728 82.0642C150.686 82.0384 150.652 82.0564 150.652 82.1035C150.652 82.1506 150.617 82.1682 150.575 82.1418C150.533 82.116 150.498 82.1312 150.498 82.176C150.498 82.2209 150.538 82.2574 150.588 82.2574C150.72 82.2574 150.612 82.3424 150.447 82.3683C150.358 82.3821 150.308 82.4514 150.311 82.5549C150.315 82.6617 150.271 82.7194 150.185 82.7194C150.023 82.7194 149.927 82.9357 150.033 83.0632C150.087 83.1288 150.075 83.1561 149.989 83.1561C149.904 83.1561 149.878 83.1029 149.902 82.9786C149.921 82.8811 149.907 82.8197 149.87 82.8419C149.834 82.8645 149.804 82.9347 149.804 82.998C149.804 83.0618 149.77 83.0923 149.727 83.066C149.685 83.0401 149.65 83.0553 149.65 83.1002C149.65 83.145 149.685 83.1815 149.727 83.1815C149.77 83.1815 149.804 83.2106 149.804 83.2457C149.804 83.2813 149.752 83.3099 149.689 83.3099C149.625 83.3099 149.573 83.2766 149.573 83.2365C149.573 83.1958 149.524 83.2032 149.464 83.2531C149.389 83.3155 149.34 83.3178 149.305 83.2614C149.27 83.2046 141.712 83.1805 124.073 83.1824L98.8905 83.1847L98.8715 75.7711C98.8609 71.6935 98.8433 54.9551 98.8327 38.5744L98.8137 8.79144L124.212 8.77204C138.182 8.76095 149.62 8.74385 149.631 8.73322C149.642 8.7226 149.642 8.75448 149.631 8.80392ZM17.3481 9.1828C17.2435 9.33204 17.2195 9.33897 17.1783 9.23178C17.1219 9.08531 17.3055 8.85151 17.4031 8.9453C17.4406 8.98088 17.4161 9.08623 17.3481 9.1828ZM150.407 9.24841C150.425 9.30617 150.397 9.33482 150.339 9.31587C150.283 9.29739 150.222 9.2364 150.204 9.18095C150.185 9.12319 150.214 9.09455 150.271 9.11349C150.327 9.13197 150.388 9.19297 150.407 9.24841ZM153.788 13.3431C153.756 13.4651 153.782 13.4808 153.955 13.4434C154.113 13.4092 154.133 13.4175 154.044 13.4813C153.942 13.5534 153.983 13.5973 154.133 13.5774C154.161 13.5737 154.202 13.6199 154.225 13.6804C154.268 13.7922 153.958 13.7035 153.78 13.5534C153.689 13.4762 153.669 13.1015 153.759 13.1569C153.796 13.1796 153.809 13.2632 153.788 13.3431ZM164.115 13.9253C164.073 13.9674 163.756 13.6402 163.756 13.5547C163.756 13.5224 163.845 13.5843 163.954 13.6929C164.062 13.8015 164.135 13.9059 164.115 13.9253ZM156.03 15.9385C156.076 16.0771 155.917 16.048 155.864 15.908C155.834 15.8331 155.852 15.798 155.908 15.8165C155.958 15.8331 156.013 15.8881 156.03 15.9385ZM165.604 16.1261C165.602 16.3391 165.589 16.3557 165.521 16.237C165.476 16.1603 165.459 16.0475 165.482 15.987C165.553 15.8012 165.607 15.8622 165.604 16.1261ZM156.393 16.2273C156.542 16.3391 156.541 16.3418 156.359 16.3141C156.256 16.2984 156.158 16.2453 156.142 16.1963C156.101 16.0748 156.209 16.0882 156.393 16.2273ZM157.899 73.9783C157.849 74.0384 157.844 74.0906 157.887 74.1063C157.928 74.1211 157.868 74.2001 157.756 74.2819C157.552 74.4302 157.552 74.4302 157.685 74.2768C157.791 74.1548 157.799 74.1035 157.723 74.0264C157.647 73.9492 157.652 73.9344 157.744 73.9543C157.807 73.9681 157.85 73.9335 157.838 73.8771C157.826 73.8212 157.854 73.7981 157.9 73.8263C157.959 73.8623 157.958 73.9067 157.899 73.9783ZM11.7384 76.1352C11.7329 76.1564 11.7245 76.2096 11.719 76.2535C11.7139 76.2973 11.6575 76.3662 11.5936 76.4064C11.5303 76.4466 11.5145 76.4799 11.5589 76.4808C11.6038 76.4812 11.6778 76.4443 11.7241 76.3981C11.7823 76.3394 11.8226 76.3389 11.8582 76.3958C11.8864 76.442 11.8217 76.4993 11.7088 76.5275C11.528 76.5727 11.5058 76.6744 11.6774 76.6744C11.7162 76.6744 11.7527 76.709 11.7583 76.7515C11.7638 76.7936 11.8341 76.874 11.9137 76.9299C11.9937 76.9858 12.0432 77.057 12.0238 77.0884C11.9461 77.2141 12.3484 77.6031 12.4516 77.5024C12.5307 77.4248 12.5205 77.4058 12.3984 77.4058C12.3156 77.4058 12.2018 77.3328 12.1459 77.2432C12.0483 77.087 12.0506 77.0852 12.2134 77.1993C12.3064 77.264 12.428 77.3 12.4835 77.2787C12.5584 77.2501 12.5741 77.3042 12.5455 77.4876C12.5108 77.7066 12.5242 77.7306 12.6625 77.6946C12.7628 77.6683 12.8678 77.7117 12.9576 77.8175C13.0676 77.9464 13.0699 77.9603 12.9691 77.8822C12.8933 77.824 12.8225 77.8133 12.7957 77.8563C12.7712 77.896 12.8031 77.9487 12.8669 77.9732C12.9307 77.9977 12.9737 78.0448 12.9631 78.0776C12.9164 78.2209 13.2998 78.7065 13.4224 78.6594C13.5139 78.6242 13.5352 78.6441 13.5014 78.7319C13.4459 78.8756 13.778 79.218 13.8997 79.1427C13.9496 79.1117 13.9639 79.1385 13.9357 79.2111C13.9089 79.2808 13.9408 79.3492 14.0134 79.3769C14.0814 79.4033 14.1129 79.4638 14.0837 79.5123C14.0546 79.5608 14.0897 79.553 14.1614 79.4952C14.2775 79.401 14.2919 79.4111 14.2919 79.5913C14.2919 79.7022 14.3265 79.7932 14.3686 79.7932C14.4112 79.7932 14.4459 79.7221 14.4459 79.6348C14.4459 79.5474 14.4782 79.4961 14.5176 79.5206C14.5573 79.5447 14.5768 79.7059 14.5606 79.8778C14.5375 80.131 14.5541 80.1828 14.6471 80.1472C14.7188 80.1195 14.7423 80.1352 14.7095 80.1883C14.6434 80.295 15.2159 80.8365 15.3621 80.8056C15.4287 80.7913 15.4523 80.8255 15.425 80.8971C15.3954 80.9738 15.4449 81.0274 15.5753 81.0602C15.7215 81.0967 15.7497 81.1332 15.6891 81.2062C15.6299 81.2774 15.6488 81.3333 15.7594 81.4127C15.8426 81.4723 15.9106 81.5657 15.9106 81.6197C15.9106 81.6743 15.9471 81.7186 15.992 81.7186C16.0369 81.7186 16.054 81.6863 16.0295 81.647C16.005 81.6073 16.0202 81.5532 16.0632 81.5269C16.1086 81.4987 16.1419 81.5601 16.1419 81.671C16.1419 81.7768 16.1816 81.8882 16.2307 81.9182C16.2857 81.9524 16.2986 81.9395 16.2649 81.8845C16.2344 81.8355 16.2464 81.7953 16.2913 81.7953C16.3361 81.7953 16.3736 81.8563 16.374 81.9302C16.375 82.0467 16.3865 82.0494 16.4587 81.9496C16.5271 81.854 16.5336 81.8591 16.4943 81.9787C16.4651 82.0684 16.4989 82.165 16.5836 82.2347C16.6645 82.3008 16.6728 82.3234 16.6044 82.2906C16.5086 82.2444 16.5058 82.2537 16.5882 82.3419C16.6728 82.433 16.6987 82.4316 16.7602 82.3341C16.8005 82.2708 16.8338 82.2555 16.8342 82.2999C16.8352 82.3442 16.794 82.4223 16.7431 82.4731C16.671 82.5452 16.689 82.5656 16.8245 82.5656C16.9212 82.5656 16.9776 82.5998 16.9512 82.6427C16.9249 82.6848 16.9401 82.7194 16.985 82.7194C17.0299 82.7194 17.0669 82.7869 17.0669 82.8691C17.0669 83.0479 17.1917 83.1454 17.2468 83.0087C17.268 82.9555 17.2884 82.9948 17.2921 83.096C17.3 83.3437 17.6621 83.6805 17.7985 83.5673C17.8744 83.5044 17.8957 83.5174 17.8873 83.6218C17.8813 83.6971 17.916 83.7516 17.9646 83.7424C18.015 83.7332 18.0372 83.7863 18.0159 83.8667C17.9909 83.9628 18.0302 84.021 18.1399 84.0492C18.2277 84.0723 18.2994 84.1379 18.299 84.1948C18.298 84.2747 18.2814 84.2724 18.2259 84.1851C18.1866 84.1227 18.1371 84.0889 18.1163 84.1097C18.0617 84.1643 18.699 84.8444 18.8577 84.9003C18.9391 84.9285 18.9733 84.9932 18.9455 85.0653C18.9145 85.147 18.9469 85.184 19.0496 85.184C19.1319 85.184 19.1994 85.233 19.1994 85.2935C19.1994 85.5296 19.6388 85.9519 19.859 85.9275C20.0287 85.9085 20.0523 85.9242 19.9825 86.0088C19.9177 86.0869 19.9214 86.1613 19.9973 86.3031C20.1064 86.5064 20.2253 86.5545 20.2304 86.3969C20.2317 86.3438 20.2849 86.396 20.3483 86.5124C20.4537 86.7065 20.5444 86.7605 20.7146 86.7314C20.7497 86.725 20.7558 86.7564 20.7285 86.8003C20.7012 86.8446 20.6415 86.8571 20.5953 86.8289C20.5435 86.7966 20.5342 86.8132 20.5708 86.8728C20.6031 86.9255 20.6952 86.9514 20.7752 86.9306C20.8552 86.9098 20.9209 86.9213 20.9209 86.9564C20.9209 86.992 20.8603 87.0368 20.7858 87.0558C20.6577 87.0895 20.6577 87.0918 20.7858 87.1001C20.8603 87.1052 20.9209 87.1459 20.9209 87.1907C20.9209 87.2355 20.9611 87.2475 21.0097 87.217C21.0661 87.1824 21.0777 87.1963 21.0416 87.2549C20.9977 87.3261 20.9588 87.3266 20.8755 87.2572C20.704 87.1149 20.7484 87.2577 20.9509 87.498C21.0522 87.6181 21.1563 87.6953 21.1822 87.6694C21.2081 87.6435 21.2294 87.68 21.2294 87.7507C21.2294 87.8214 21.2664 87.8792 21.3117 87.8792C21.357 87.8792 21.4477 87.9323 21.5129 87.9979C21.6197 88.1046 21.6419 88.1023 21.7349 87.9785C21.8301 87.8514 21.8348 87.8542 21.7945 88.0141C21.7705 88.1093 21.7857 88.1874 21.8288 88.1874C21.8713 88.1874 21.9273 88.241 21.9522 88.3066C21.9828 88.386 21.9675 88.4073 21.9069 88.3699C21.8565 88.3389 21.8954 88.4249 21.9925 88.5616C22.1428 88.7723 22.1881 88.7954 22.2968 88.7141C22.4041 88.6332 22.4087 88.6351 22.3278 88.7261C22.1969 88.8726 22.2048 89.0611 22.3398 89.0093C22.4726 88.9585 22.6876 89.1886 22.6372 89.3282C22.6164 89.3855 22.671 89.4478 22.7621 89.4719C22.8509 89.495 22.9045 89.5444 22.8809 89.5823C22.8578 89.6197 22.8948 89.6502 22.9637 89.6502C23.0322 89.6502 23.0669 89.6853 23.0405 89.7278C23.0141 89.7703 23.0465 89.8262 23.1122 89.8517C23.1783 89.8766 23.2098 89.9339 23.1825 89.9783C23.1534 90.0254 23.1695 90.0365 23.2213 90.0041C23.275 89.9713 23.3106 89.9995 23.3106 90.0748C23.3106 90.2573 23.5021 90.4292 23.5987 90.3327C23.6515 90.28 23.6644 90.3193 23.639 90.4533C23.6168 90.5678 23.6362 90.6515 23.6843 90.6515C23.7306 90.6515 23.7481 90.5993 23.7236 90.536C23.6737 90.4061 23.8878 90.3715 23.965 90.4967C23.9914 90.5392 23.9623 90.5535 23.8984 90.529C23.7578 90.475 23.7731 90.6344 23.929 90.8446C24.0423 90.9976 24.2435 91.0886 24.2264 90.9786C24.2213 90.9472 24.2213 90.8779 24.2264 90.8247C24.2375 90.7065 85.9794 90.6806 85.9794 90.7989C85.9794 90.8377 85.953 90.8844 85.9215 90.9019C85.8896 90.9199 85.9067 90.9236 85.9599 90.9107C86.0131 90.8978 86.0561 90.9232 86.0561 90.9675C86.0561 91.0114 86.0996 91.0017 86.1528 90.9458C86.2282 90.8659 86.2407 90.0457 86.2106 87.1667C86.1852 84.7515 86.1986 83.4786 86.249 83.4573C86.2915 83.4393 86.2804 83.4222 86.2249 83.4185C86.1699 83.4153 86.144 83.3811 86.1681 83.3423C86.1926 83.3025 86.0261 83.2743 85.787 83.2776C85.5529 83.2808 85.3388 83.2605 85.3106 83.2323C85.2282 83.15 27.8584 83.1722 27.8584 83.2549C27.8584 83.2942 27.7858 83.3127 27.697 83.2956C27.5712 83.2716 27.5471 83.2938 27.586 83.3963C27.6253 83.4998 27.616 83.5081 27.5425 83.4351C27.4689 83.3621 27.4699 83.3168 27.5471 83.2235C27.6419 83.1094 27.5411 83.0572 27.2997 83.0955C27.2678 83.1006 27.2419 83.0701 27.2419 83.0276C27.2419 82.9851 27.2997 82.9504 27.37 82.9504C27.4407 82.9504 27.4745 82.9264 27.4449 82.8968C27.3644 82.8164 27.1355 82.7966 27.0892 82.8668C27.067 82.9005 26.9796 82.8585 26.895 82.7735C26.8099 82.6885 26.7858 82.645 26.8413 82.6765C26.9787 82.755 27.3186 82.7878 27.3186 82.7222C27.3186 82.6547 26.938 82.2952 26.8695 82.2985C26.8409 82.2994 26.8275 82.2588 26.839 82.2079C26.8506 82.1571 26.7895 82.0929 26.703 82.0652C26.6166 82.0379 26.5657 81.9834 26.5897 81.9441C26.6142 81.9048 26.6004 81.8725 26.5587 81.8725C26.5176 81.8725 26.4681 81.9159 26.4491 81.9686C26.4302 82.0217 26.3881 82.0397 26.3548 82.0092C26.3219 81.9783 26.3391 81.8997 26.3936 81.8341C26.4769 81.7339 26.4727 81.7228 26.3663 81.7634C26.2771 81.7976 26.2387 81.7694 26.2373 81.6687C26.2331 81.4386 26.0394 81.2187 25.9788 81.3758C25.9126 81.5486 25.9191 81.5809 26.0084 81.5259C26.0509 81.4996 26.0856 81.5555 26.0856 81.6516C26.0856 81.8203 26.0824 81.8207 25.9741 81.6756C25.9131 81.5934 25.8821 81.4479 25.9057 81.3527C25.9311 81.2478 25.9126 81.1794 25.8581 81.1794C25.8086 81.1794 25.7878 81.1471 25.8123 81.1078C25.8368 81.0685 25.816 81.0107 25.7665 80.9803C25.7124 80.947 25.6966 80.9581 25.7281 81.008C25.7563 81.0542 25.7443 81.1133 25.7013 81.1401C25.6583 81.1669 25.6231 81.1323 25.6231 81.0639C25.6231 80.9955 25.5875 80.9608 25.5445 80.9876C25.5015 81.0145 25.4894 81.0736 25.5181 81.1198C25.5496 81.1706 25.5338 81.1808 25.477 81.1461C25.409 81.1041 25.4071 81.0616 25.4686 80.9867C25.5274 80.9165 25.5283 80.8698 25.4723 80.8352C25.4279 80.8079 25.3923 80.7441 25.3928 80.6933C25.3937 80.6383 25.4238 80.648 25.4686 80.7173C25.5098 80.7806 25.544 80.8001 25.5445 80.7594C25.5473 80.6055 24.835 80.0104 24.7499 80.0959C24.7041 80.1412 24.6306 80.1772 24.5862 80.1758C24.5418 80.1744 24.5658 80.1384 24.6403 80.095C24.7143 80.052 24.7749 79.9642 24.7749 79.9004C24.7749 79.832 24.7383 79.8066 24.6861 79.839C24.6287 79.8746 24.6181 79.8602 24.656 79.7988C24.7226 79.6907 24.3281 79.2355 24.2236 79.2998C24.188 79.3219 24.1579 79.26 24.157 79.1625C24.1561 79.0244 24.1403 79.0096 24.0853 79.0965C24.0464 79.1579 24.0349 79.2415 24.0599 79.2817C24.0848 79.3219 24.0682 79.3321 24.0233 79.3044C23.9785 79.2767 23.9586 79.1893 23.9789 79.1108C24.002 79.023 23.9674 78.9486 23.8901 78.9186C23.8203 78.8922 23.7828 78.8386 23.8069 78.7998C23.8624 78.7097 23.4147 78.329 23.2889 78.359C23.2371 78.3715 23.2209 78.3673 23.2528 78.3493C23.3629 78.2879 23.3097 78.0989 23.182 78.0989C23.1113 78.0989 23.0729 78.0795 23.0969 78.0559C23.1205 78.0319 23.0618 77.9279 22.966 77.8249C22.7866 77.6313 22.6423 77.5685 22.7399 77.726C22.7741 77.7815 22.7607 77.7939 22.7043 77.7593C22.6548 77.7283 22.6321 77.6738 22.6543 77.6382C22.7538 77.4779 22.5419 77.154 22.4092 77.263C22.2959 77.3554 22.2866 77.3481 22.3264 77.1937C22.3565 77.0768 22.3264 76.9886 22.2344 76.9239C22.1594 76.8717 22.0933 76.8024 22.0873 76.7705C22.0817 76.7391 22.0512 76.7215 22.0193 76.7321C21.9874 76.7428 21.9703 76.7774 21.9809 76.8093C21.9916 76.8407 21.9222 76.8643 21.8264 76.8611C21.7312 76.8574 21.6965 76.8375 21.7497 76.8158C21.8024 76.7945 21.8454 76.7192 21.8445 76.6485C21.8436 76.5376 21.8334 76.5358 21.7686 76.636C21.7275 76.6993 21.6937 76.715 21.6928 76.6707C21.6923 76.6259 21.7321 76.5492 21.7816 76.4997C21.912 76.3694 21.6475 76.2816 21.4981 76.4055C21.4046 76.4831 21.3834 76.4775 21.3834 76.3759C21.3834 76.2932 21.3112 76.2475 21.1715 76.2405C20.9833 76.2313 20.9796 76.2262 21.1373 76.1962C21.2349 76.1772 21.3616 76.2008 21.4194 76.2488C21.524 76.3357 21.6558 76.2405 21.561 76.1463C21.4796 76.0645 20.9357 76.0908 20.907 76.1777C20.8885 76.2327 19.5385 76.2576 16.6636 76.2567C12.9048 76.2553 12.4395 76.2682 12.379 76.3764C12.3415 76.4429 12.2453 76.484 12.1644 76.4669C12.0506 76.4429 12.0848 76.4036 12.3198 76.29C12.4858 76.2096 12.5774 76.1292 12.5228 76.1111C12.4682 76.0927 12.4021 76.1135 12.3748 76.1569C12.3184 76.2479 12.1741 76.2766 11.9021 76.2507C11.719 76.2336 11.7208 76.2299 11.9405 76.174L12.1718 76.1148L11.9599 76.1061C11.8434 76.101 11.7435 76.1139 11.7384 76.1352ZM14.6965 76.1546C15.7455 76.1666 17.4628 76.1666 18.5122 76.1546C19.5611 76.1426 18.7027 76.1324 16.6044 76.1324C14.5055 76.1324 13.6471 76.1426 14.6965 76.1546ZM165.528 76.2169C165.529 76.1772 165.578 76.2114 165.638 76.2932C165.755 76.4526 165.731 76.5626 165.583 76.5529C165.517 76.5482 165.518 76.5358 165.588 76.5076C165.641 76.4863 165.663 76.4355 165.638 76.3944C165.61 76.3491 165.551 76.3551 165.484 76.4106C165.394 76.4845 165.375 76.4614 165.376 76.2793C165.377 76.1084 165.394 76.0843 165.452 76.174C165.493 76.2373 165.527 76.2567 165.528 76.2169ZM20.8436 76.424C20.8436 76.4558 20.7377 76.4817 20.6078 76.4817C20.4783 76.4817 20.3913 76.4508 20.4149 76.4129C20.4653 76.3311 20.8436 76.3408 20.8436 76.424ZM170.27 76.715C170.15 76.7677 170.181 76.7802 170.41 76.7705C170.572 76.7636 170.721 76.7303 170.742 76.6966C170.792 76.6162 170.465 76.6286 170.27 76.715ZM168.988 76.995C168.893 77.1106 168.899 77.1147 169.046 77.0362C169.135 76.9886 169.236 76.9743 169.27 77.0043C169.303 77.0348 169.306 77.0163 169.276 76.9632C169.2 76.8329 169.114 76.8421 168.988 76.995ZM174.394 76.9567C174.394 77.0061 174.417 77.0237 174.444 76.996C174.472 76.9682 174.539 76.9812 174.592 77.0255C174.66 77.0815 174.705 77.0778 174.746 77.0126C174.782 76.9539 174.771 76.9401 174.714 76.9752C174.665 77.0052 174.625 76.9932 174.625 76.9484C174.625 76.9036 174.573 76.8671 174.509 76.8671C174.446 76.8671 174.394 76.9073 174.394 76.9567ZM166.938 77.7828C166.716 77.9021 166.554 78.019 166.577 78.0425C166.617 78.0818 167.379 77.6484 167.379 77.5869C167.379 77.5463 167.371 77.55 166.938 77.7828ZM169.923 78.0342C169.923 78.0647 169.862 78.0786 169.788 78.0647C169.714 78.0504 169.602 78.0938 169.54 78.1608C169.439 78.2694 169.443 78.2759 169.579 78.2227C169.801 78.1345 170.016 78.085 170.212 78.0762C170.307 78.0716 170.386 78.0397 170.386 78.0056C170.386 77.9709 170.282 77.9506 170.154 77.9603C170.027 77.97 169.923 78.0032 169.923 78.0342ZM173.353 78.0079C173.396 78.0495 173.621 78.1035 173.854 78.128C174.198 78.1645 174.235 78.1585 174.047 78.0966C173.676 77.9737 173.265 77.9215 173.353 78.0079ZM174.317 78.2638C174.317 78.3003 174.366 78.3299 174.426 78.3299C174.486 78.3299 174.596 78.3535 174.67 78.3817C174.755 78.414 174.786 78.4034 174.754 78.3526C174.691 78.2505 174.317 78.1747 174.317 78.2638ZM168.921 78.3299C168.818 78.3964 168.818 78.4048 168.921 78.4048C168.984 78.4048 169.089 78.371 169.152 78.3299C169.255 78.2638 169.255 78.2555 169.152 78.2555C169.089 78.2555 168.984 78.2888 168.921 78.3299ZM168.31 78.481C168.054 78.5438 168.01 78.7056 168.263 78.6575C168.37 78.6372 168.458 78.5873 168.458 78.5475C168.458 78.5078 168.491 78.4949 168.53 78.5194C168.569 78.5438 168.62 78.5341 168.642 78.4981C168.689 78.4223 168.575 78.4163 168.31 78.481ZM178.177 78.8266C178.361 78.9726 178.526 79.0794 178.542 79.0632C178.592 79.0128 178.061 78.5656 177.948 78.5633C177.889 78.5623 177.992 78.6806 178.177 78.8266ZM165.298 78.8308C165.244 78.8964 165.216 78.9671 165.238 78.9883C165.259 79.0096 165.321 78.9731 165.375 78.9075C165.429 78.8419 165.457 78.7712 165.435 78.7499C165.414 78.7287 165.352 78.7652 165.298 78.8308ZM164.926 79.1242C164.834 79.2226 164.759 79.3349 164.761 79.3746C164.762 79.4144 164.806 79.3913 164.857 79.3233C164.909 79.2559 164.985 79.1866 165.027 79.1695C165.09 79.1431 165.166 78.9463 165.112 78.9463C165.102 78.9463 165.018 79.0262 164.926 79.1242ZM167.183 79.0281C167.155 79.0734 167.153 79.1311 167.179 79.1565C167.204 79.1819 167.225 79.1635 167.225 79.1154C167.225 79.0655 167.28 79.0489 167.353 79.0771C167.439 79.1103 167.464 79.0969 167.426 79.0364C167.356 78.9241 167.25 78.9204 167.183 79.0281ZM166.646 79.4864C166.619 79.5294 166.565 79.5447 166.526 79.5206C166.486 79.4961 166.454 79.5151 166.454 79.5622C166.454 79.6093 166.425 79.6306 166.39 79.6089C166.354 79.5867 166.326 79.6177 166.326 79.6773C166.326 79.759 166.379 79.7475 166.544 79.6301C166.664 79.5447 166.762 79.4596 166.762 79.4416C166.762 79.3811 166.695 79.407 166.646 79.4864ZM164.489 79.5622C164.404 79.5987 164.367 79.6311 164.407 79.6338C164.447 79.6366 164.412 79.6884 164.33 79.7484C164.248 79.8085 164.2 79.8773 164.225 79.9018C164.249 79.9258 164.368 79.8422 164.489 79.7156C164.726 79.4689 164.726 79.4606 164.489 79.5622ZM177.138 79.5502C177.111 79.5932 177.127 79.6519 177.173 79.68C177.291 79.7535 177.367 79.6532 177.269 79.5544C177.213 79.4989 177.17 79.4975 177.138 79.5502ZM177.4 79.784C177.4 79.8824 177.626 80.0543 177.682 79.9984C177.738 79.9425 177.566 79.7161 177.468 79.7161C177.43 79.7161 177.4 79.7466 177.4 79.784ZM163.745 80.3066C163.699 80.3629 163.69 80.4096 163.727 80.4105C163.764 80.411 163.743 80.4484 163.679 80.4932C163.576 80.5658 163.576 80.5713 163.679 80.5436C163.743 80.5261 163.795 80.4628 163.795 80.4027C163.795 80.3431 163.835 80.2936 163.885 80.2936C163.934 80.2936 163.995 80.2738 164.02 80.2488C164.044 80.2243 164.012 80.204 163.948 80.204C163.883 80.204 163.793 80.2502 163.745 80.3066ZM178.407 80.6018C178.407 80.7123 178.624 80.9835 178.673 80.9345C178.696 80.9119 178.645 80.8102 178.561 80.709C178.476 80.6078 178.407 80.5593 178.407 80.6018ZM163.525 80.709C163.525 80.7608 163.494 80.7843 163.455 80.7603C163.417 80.7368 163.314 80.8389 163.227 80.9872C163.139 81.135 163.102 81.2566 163.145 81.2566C163.187 81.2566 163.245 81.1956 163.273 81.1216C163.301 81.0477 163.396 80.9294 163.483 80.8587C163.57 80.788 163.615 80.7044 163.583 80.6725C163.551 80.6406 163.525 80.6573 163.525 80.709ZM180.306 80.9202C180.28 80.9456 180.311 81.0186 180.375 81.0824C180.525 81.2316 180.577 81.1799 180.45 81.007C180.396 80.9336 180.332 80.8948 180.306 80.9202ZM164.38 81.5181C164.307 81.6054 164.309 81.6257 164.388 81.6142C164.494 81.5985 164.563 81.4977 164.506 81.4405C164.487 81.422 164.43 81.4566 164.38 81.5181ZM151.5 81.5139C151.5 81.5287 151.43 81.6031 151.346 81.6798C151.203 81.8092 151.192 81.8096 151.192 81.6872C151.192 81.6146 151.224 81.5754 151.264 81.5999C151.303 81.6239 151.357 81.6086 151.384 81.5657C151.43 81.4904 151.5 81.4594 151.5 81.5139ZM162.629 81.9191C162.6 81.9995 162.562 82.091 162.545 82.1229C162.528 82.1543 162.547 82.1807 162.586 82.1807C162.663 82.1807 162.772 81.8642 162.715 81.8069C162.696 81.7884 162.657 81.8392 162.629 81.9191ZM180.869 81.8392C180.869 81.9524 181.038 82.1802 181.122 82.1793C181.188 82.1784 181.186 82.159 181.113 82.1127C181.056 82.0772 181.013 82.0259 181.016 81.9986C181.036 81.8545 181.015 81.7953 180.946 81.7953C180.903 81.7953 180.869 81.8152 180.869 81.8392ZM162.385 82.414C162.274 82.5919 162.268 82.6427 162.36 82.6427C162.422 82.6427 162.543 82.3285 162.498 82.2837C162.487 82.2731 162.437 82.3318 162.385 82.414ZM163.795 82.4117C163.769 82.4537 163.775 82.4889 163.809 82.4898C163.844 82.4902 163.825 82.5207 163.767 82.5572C163.695 82.6034 163.689 82.6395 163.748 82.676C163.795 82.7051 163.836 82.7005 163.839 82.6663C163.843 82.6321 163.857 82.5434 163.871 82.4695C163.9 82.3193 163.867 82.2943 163.795 82.4117ZM17.6834 83.2586C17.749 83.3811 17.7421 83.4125 17.6501 83.4125C17.5733 83.4125 17.5506 83.3691 17.5835 83.2845C17.6191 83.1916 17.6047 83.1736 17.5303 83.2194C17.4623 83.2614 17.4466 83.2526 17.4831 83.1935C17.559 83.071 17.5881 83.0807 17.6834 83.2586ZM181.64 83.3718C181.64 83.5151 181.823 84.0289 181.874 84.0289C181.905 84.0289 181.879 83.8815 181.817 83.7017C181.705 83.3755 181.64 83.2545 181.64 83.3718ZM162.728 84.0035C162.709 84.0233 162.527 84.0534 162.324 84.0705C162.122 84.088 161.932 84.1402 161.903 84.1874C161.874 84.2345 161.828 84.2701 161.801 84.2664C161.626 84.2428 161.524 84.2779 161.367 84.4138C161.269 84.4983 161.158 84.5676 161.12 84.5676C160.985 84.5676 160.287 85.215 160.287 85.3397C160.287 85.3859 160.253 85.4026 160.21 85.3762C160.168 85.3499 160.102 85.4086 160.064 85.5065C160.025 85.6045 159.923 85.7588 159.837 85.8494C159.751 85.9404 159.701 86.036 159.728 86.0619C159.754 86.0882 159.714 86.1543 159.639 86.2093C159.564 86.2643 159.497 86.4112 159.491 86.536C159.485 86.6603 159.45 86.7841 159.413 86.8104C159.376 86.8372 159.335 86.9759 159.321 87.1186C159.307 87.2619 159.288 87.3788 159.279 87.3788C159.269 87.3788 159.255 87.698 159.247 88.0885C159.238 88.4784 159.253 88.7843 159.28 88.7682C159.307 88.7515 159.324 88.8273 159.32 88.9359C159.31 89.1706 159.454 89.6188 159.581 89.7454C159.63 89.7948 159.671 89.8909 159.671 89.9593C159.671 90.0277 159.749 90.1673 159.844 90.2694C159.94 90.3715 160.019 90.4907 160.021 90.5341C160.023 90.5776 160.066 90.6043 160.118 90.5937C160.169 90.5831 160.211 90.6201 160.211 90.6755C160.211 90.81 160.978 91.5095 161.066 91.455C161.104 91.4319 161.136 91.4499 161.136 91.4961C161.136 91.5705 161.348 91.6855 161.559 91.7257C161.602 91.7341 161.689 91.7858 161.752 91.8408C161.815 91.8962 161.928 91.9314 162.003 91.9193C162.077 91.9073 162.137 91.9258 162.137 91.9605C162.137 91.9956 162.198 92.015 162.272 92.0039C162.451 91.9776 162.68 92.124 162.619 92.2262C162.592 92.271 162.63 92.2585 162.703 92.1994C162.791 92.1282 163.026 92.0926 163.393 92.0949C163.699 92.0972 163.984 92.0774 164.026 92.052C164.068 92.0261 164.198 92.015 164.315 92.027C164.435 92.0395 164.527 92.0113 164.527 91.9619C164.527 91.9138 164.563 91.8967 164.608 91.9244C164.652 91.9517 164.73 91.9392 164.781 91.8967C164.832 91.8542 164.909 91.8131 164.951 91.8057C164.993 91.7978 165.02 91.7613 165.01 91.7248C165 91.6879 165.042 91.6777 165.104 91.7013C165.166 91.7253 165.266 91.698 165.325 91.6407C165.385 91.5839 165.595 91.4416 165.794 91.3247C166.016 91.1939 166.133 91.0784 166.1 91.0239C166.068 90.9731 166.079 90.9564 166.125 90.9851C166.169 91.0123 166.249 90.9832 166.301 90.9199C166.353 90.8571 166.366 90.8035 166.329 90.8007C166.292 90.798 166.343 90.7628 166.443 90.7231C166.556 90.6778 166.608 90.6085 166.582 90.5392C166.557 90.4741 166.596 90.4103 166.679 90.3839C166.802 90.3451 167.084 89.86 167.072 89.7075C167.07 89.6752 167.123 89.5421 167.191 89.4118C167.258 89.281 167.294 89.1239 167.27 89.062C167.246 89.0001 167.26 88.9696 167.3 88.9946C167.408 89.0611 167.382 87.2522 167.273 87.1135C167.205 87.0257 167.209 87.0161 167.295 87.0678C167.376 87.1163 167.386 87.1057 167.334 87.0248C167.297 86.9652 167.263 86.8991 167.26 86.8779C167.217 86.5762 167.12 86.347 167.053 86.3886C167.005 86.4182 166.992 86.4038 167.023 86.3539C167.127 86.1857 165.997 84.7386 165.838 84.837C165.805 84.8578 165.719 84.7853 165.647 84.6767C165.569 84.5561 165.473 84.4956 165.404 84.5223C165.341 84.5464 165.31 84.5344 165.334 84.4951C165.391 84.4031 165.284 84.3403 165.037 84.32C164.928 84.3107 164.822 84.259 164.801 84.2045C164.78 84.1504 164.726 84.1056 164.679 84.1056C164.633 84.1056 164.617 84.149 164.644 84.2021C164.671 84.2548 164.647 84.246 164.59 84.1827C164.535 84.119 164.419 84.0695 164.334 84.0723C164.25 84.0751 164.146 84.0584 164.103 84.0353C164.008 83.9831 162.777 83.9549 162.728 84.0035ZM162.789 84.9049C162.761 85.0371 162.685 85.1974 162.62 85.2607C162.555 85.3245 162.525 85.3333 162.555 85.2801C162.622 85.1614 162.561 85.1581 162.354 85.2686C162.231 85.3346 162.209 85.3319 162.256 85.2566C162.298 85.1877 162.284 85.1794 162.207 85.2274C162.148 85.2644 162.021 85.2847 161.926 85.2723C161.83 85.2598 161.752 85.2889 161.752 85.3369C161.752 85.385 161.716 85.4021 161.673 85.3748C161.619 85.3416 161.595 85.9681 161.598 87.315C161.6 88.4087 161.598 89.3383 161.591 89.3808C161.585 89.4233 161.588 89.4926 161.598 89.5347C161.608 89.5772 161.61 89.8457 161.603 90.1317L161.59 90.6515H161.979H162.369V89.458C162.369 88.3292 162.377 88.264 162.518 88.264C162.635 88.264 162.66 88.3056 162.632 88.4567C162.613 88.5625 162.632 88.6494 162.676 88.6494C162.719 88.6494 162.754 88.5625 162.754 88.4567C162.754 88.2359 162.886 88.21 163.201 88.3694C163.316 88.4276 163.47 88.465 163.544 88.4535C163.618 88.4415 163.679 88.4692 163.679 88.5154C163.679 88.5611 163.726 88.6531 163.782 88.7201C163.839 88.7871 163.922 88.9456 163.967 89.0726C164.013 89.1997 164.076 89.373 164.108 89.458C164.14 89.5426 164.158 89.6724 164.149 89.7468C164.14 89.8207 164.168 89.8812 164.212 89.8812C164.255 89.8812 164.271 89.9339 164.246 89.9977C164.222 90.0619 164.249 90.1714 164.306 90.2407C164.364 90.31 164.403 90.3793 164.392 90.3937C164.27 90.5632 164.409 90.6515 164.8 90.6515C165.196 90.6515 165.221 90.6413 165.147 90.5036C165.103 90.4223 165.047 90.2287 165.023 90.073C164.998 89.9177 164.931 89.6581 164.874 89.4963C164.817 89.3346 164.791 89.1817 164.816 89.1567C164.841 89.1318 164.815 89.1115 164.758 89.1115C164.702 89.1115 164.678 89.0884 164.706 89.0606C164.734 89.0329 164.714 88.9567 164.661 88.892C164.582 88.7936 164.585 88.7852 164.681 88.8416C164.828 88.9285 164.626 88.6494 164.469 88.5491C164.416 88.5154 164.373 88.4392 164.373 88.3796C164.373 88.3204 164.314 88.2386 164.242 88.1984C164.131 88.137 164.127 88.1056 164.212 88.003C164.268 87.936 164.344 87.9 164.382 87.9231C164.419 87.9462 164.45 87.9055 164.45 87.8325C164.45 87.7595 164.473 87.7221 164.5 87.7493C164.576 87.8246 164.919 87.3935 164.875 87.2785C164.855 87.223 164.868 87.1972 164.906 87.2207C164.972 87.2614 164.965 86.3729 164.897 86.0906C164.861 85.9376 164.518 85.5518 164.466 85.6045C164.447 85.6234 164.363 85.5629 164.281 85.4696C164.198 85.3758 164.157 85.3513 164.189 85.415C164.24 85.5144 164.23 85.5158 164.118 85.4247C164.046 85.3665 163.987 85.3494 163.986 85.3864C163.986 85.4233 163.958 85.4109 163.925 85.3587C163.892 85.3064 163.659 85.2436 163.407 85.2187C162.994 85.1785 162.836 85.0999 162.833 84.9336C162.832 84.9017 162.868 84.8758 162.913 84.8758C162.962 84.8758 162.974 84.8093 162.944 84.7132C162.889 84.539 163.96 84.52 164.226 84.6905C164.411 84.8084 164.861 84.9465 164.927 84.9054C164.961 84.8841 164.99 84.9243 164.99 84.995C164.99 85.0791 165.031 85.1078 165.109 85.0773C165.188 85.0477 165.21 85.0625 165.174 85.1207C165.137 85.1808 165.162 85.1937 165.251 85.1595C165.327 85.1299 165.364 85.1396 165.337 85.1826C165.312 85.2233 165.38 85.2783 165.487 85.3055C165.595 85.3323 165.663 85.3855 165.64 85.4229C165.616 85.4608 165.653 85.4917 165.722 85.4917C165.791 85.4917 165.825 85.5269 165.799 85.5694C165.772 85.6119 165.805 85.6678 165.871 85.6932C165.937 85.7186 165.992 85.7824 165.992 85.8346C165.992 85.8873 166.061 85.9926 166.146 86.0693C166.23 86.146 166.3 86.2555 166.3 86.3123C166.3 86.3692 166.335 86.4158 166.377 86.4158C166.42 86.4158 166.454 86.4796 166.454 86.5572C166.454 86.6349 166.48 86.7245 166.512 86.7559C166.544 86.7878 166.572 86.8368 166.574 86.8654C166.59 87.0521 166.707 87.4171 166.751 87.4171C166.816 87.4171 166.791 88.6245 166.72 88.8587C166.692 88.953 166.675 89.0528 166.684 89.0814C166.692 89.1096 166.669 89.154 166.634 89.1798C166.507 89.2732 166.214 89.8826 166.261 89.9579C166.287 90.0004 166.255 90.0356 166.189 90.0356C166.121 90.0356 166.069 90.1007 166.069 90.1848C166.069 90.2671 166.029 90.359 165.98 90.3895C165.92 90.4265 165.911 90.4089 165.953 90.3359C165.988 90.2768 165.925 90.3109 165.814 90.4126C165.702 90.5138 165.625 90.6191 165.642 90.6464C165.658 90.6737 165.502 90.7744 165.293 90.87C165.083 90.9657 164.912 91.077 164.912 91.1172C164.912 91.1574 164.877 91.1907 164.833 91.1907C164.789 91.1907 164.624 91.2471 164.467 91.3164C164.053 91.498 163.893 91.5003 163.703 91.3265C163.535 91.1731 163.535 91.1731 163.575 91.3279C163.611 91.4656 163.573 91.4859 163.224 91.51C163.008 91.5248 162.831 91.5155 162.831 91.4892C162.831 91.4624 162.739 91.4407 162.627 91.4407C162.423 91.4407 162.143 91.175 162.139 90.9786C162.138 90.9259 162.103 90.8825 162.061 90.8825C161.946 90.8825 161.967 91.004 162.101 91.1149C162.166 91.1685 162.204 91.2263 162.187 91.2434C162.136 91.2942 161.322 90.8982 161.216 90.7711C161.162 90.7065 161.087 90.6727 161.048 90.6968C161.009 90.7203 160.987 90.694 160.999 90.6381C161.01 90.5817 160.974 90.5457 160.918 90.5572C160.861 90.5688 160.839 90.541 160.868 90.4944C160.897 90.4468 160.849 90.3918 160.758 90.3678C160.669 90.3447 160.596 90.2841 160.596 90.2338C160.596 90.183 160.541 90.0744 160.475 89.9926C160.408 89.9103 160.378 89.8914 160.409 89.951C160.446 90.0203 160.435 90.0402 160.38 90.0065C160.333 89.9773 160.314 89.9025 160.338 89.8406C160.361 89.7782 160.341 89.7274 160.291 89.7274C160.242 89.7274 160.221 89.6955 160.245 89.6567C160.269 89.6174 160.234 89.531 160.167 89.464C160.1 89.397 160.07 89.3425 160.099 89.3425C160.128 89.3425 160.109 89.2903 160.056 89.227C160.003 89.1632 159.989 89.1115 160.024 89.1115C160.058 89.1115 160.048 89.0726 160.001 89.025C159.953 88.9775 159.933 88.8906 159.955 88.8324C159.977 88.7742 159.965 88.7261 159.927 88.7261C159.889 88.7261 159.854 88.6656 159.849 88.5917C159.798 87.8621 159.794 87.571 159.834 87.571C159.86 87.571 159.88 87.5104 159.877 87.4365C159.873 87.3108 159.976 87.0262 160.144 86.7019C160.183 86.6256 160.192 86.5253 160.162 86.4778C160.131 86.426 160.144 86.414 160.199 86.4473C160.248 86.4773 160.287 86.462 160.287 86.4135C160.287 86.3646 160.356 86.2375 160.44 86.1303C160.525 86.0236 160.575 85.9053 160.552 85.8679C160.529 85.8304 160.558 85.7999 160.618 85.7999C160.743 85.7999 161.002 85.5384 160.939 85.4751C160.915 85.452 161.005 85.3947 161.137 85.349C161.27 85.3028 161.356 85.2293 161.329 85.1859C161.303 85.1424 161.317 85.1068 161.362 85.1068C161.407 85.1068 161.445 85.1503 161.446 85.2029C161.448 85.2561 161.499 85.2127 161.559 85.1068C161.62 85.001 161.671 84.941 161.672 84.9738C161.674 85.0066 161.753 84.9849 161.848 84.9253C161.944 84.8657 162.117 84.795 162.234 84.7682C162.351 84.7409 162.446 84.6896 162.446 84.654C162.446 84.6185 162.534 84.606 162.642 84.6268C162.818 84.66 162.834 84.6905 162.789 84.9049ZM180.715 84.8536C180.715 85.0047 180.919 85.5689 180.975 85.5689C181.02 85.5689 180.833 84.8144 180.772 84.7538C180.74 84.722 180.715 84.7668 180.715 84.8536ZM182.07 84.8878C182.04 84.9576 182.067 85.1655 182.132 85.3499C182.237 85.6493 182.248 85.6604 182.244 85.4534C182.234 85.0611 182.135 84.7391 182.07 84.8878ZM19.9186 85.6849C19.9186 85.7722 19.6374 85.6479 19.631 85.5578C19.6217 85.434 19.631 85.434 19.7697 85.5527C19.8516 85.623 19.9186 85.6826 19.9186 85.6849ZM161.367 85.8512C161.367 86.0772 161.46 86.0393 161.497 85.7981C161.509 85.7144 161.485 85.6461 161.443 85.6461C161.401 85.6461 161.367 85.7385 161.367 85.8512ZM180.874 85.7038C180.895 85.9293 181.012 86.0554 181.018 85.8577C181.02 85.7412 180.988 85.6461 180.946 85.6461C180.903 85.6461 180.871 85.6719 180.874 85.7038ZM162.633 86.0762C162.63 86.1996 162.602 86.3784 162.57 86.4731C162.526 86.6062 162.538 86.6362 162.624 86.6034C162.685 86.5799 162.734 86.5193 162.733 86.469C162.731 86.4186 162.735 86.2444 162.742 86.0813L162.754 85.7856L163.197 85.8364C163.441 85.8642 163.699 85.8923 163.77 85.8983C163.841 85.9048 163.893 85.9339 163.886 85.9626C163.878 85.9917 163.899 86.0102 163.931 86.0042C164.182 85.9547 164.366 87.0405 164.146 87.2757C164.062 87.3663 164.011 87.4707 164.035 87.5077C164.057 87.5446 164.047 87.57 164.012 87.564C163.857 87.5368 163.751 87.5774 163.794 87.6472C163.821 87.6911 163.79 87.704 163.722 87.6777C163.656 87.6523 163.602 87.662 163.602 87.699C163.602 87.8399 162.741 87.8131 162.629 87.6685C162.529 87.5405 162.525 87.5405 162.569 87.6675C162.602 87.7595 162.577 87.802 162.493 87.802C162.363 87.802 162.296 85.9746 162.422 85.8498C162.53 85.7422 162.638 85.8586 162.633 86.0762ZM181.043 86.3775C181.043 86.5471 181.059 86.6071 181.078 86.5115C181.096 86.4154 181.095 86.2768 181.076 86.2033C181.056 86.1298 181.042 86.2079 181.043 86.3775ZM161.29 86.5313C161.29 86.5951 161.324 86.6469 161.367 86.6469C161.409 86.6469 161.444 86.5951 161.444 86.5313C161.444 86.468 161.409 86.4158 161.367 86.4158C161.324 86.4158 161.29 86.468 161.29 86.5313ZM181.006 87.7285C180.987 87.8574 181 87.9808 181.036 88.0025C181.071 88.0242 181.1 87.9189 181.1 87.7683C181.1 87.4324 181.052 87.4125 181.006 87.7285ZM161.367 88.1102C161.367 88.2373 161.396 88.3412 161.43 88.3412C161.465 88.3412 161.479 88.2373 161.46 88.1102C161.442 87.9831 161.413 87.8792 161.396 87.8792C161.38 87.8792 161.367 87.9831 161.367 88.1102ZM180.928 88.2978C180.908 88.4008 180.917 88.526 180.948 88.5759C180.98 88.6272 181.018 88.5459 181.036 88.3883C181.073 88.0783 180.984 88.0044 180.928 88.2978ZM182.163 88.6494C182.144 88.7765 182.158 88.8804 182.193 88.8804C182.227 88.8804 182.256 88.7765 182.256 88.6494C182.256 88.5223 182.243 88.4184 182.227 88.4184C182.21 88.4184 182.181 88.5223 182.163 88.6494ZM180.879 88.8564C180.874 88.9493 180.834 89.0468 180.792 89.0726C180.749 89.099 180.717 89.2136 180.721 89.3277C180.727 89.531 180.729 89.5301 180.84 89.275C180.903 89.1322 180.939 88.9414 180.922 88.8513C180.89 88.6891 180.89 88.6891 180.879 88.8564ZM162.79 89.0385C162.714 89.1618 162.823 89.5107 162.919 89.4515C162.976 89.4159 162.972 89.3818 162.906 89.3406C162.852 89.3078 162.828 89.2085 162.851 89.1193C162.897 88.9442 162.87 88.9086 162.79 89.0385ZM182.026 89.092C182.027 89.166 182.061 89.2787 182.102 89.3425C182.159 89.4298 182.177 89.3975 182.178 89.2076C182.179 89.0699 182.145 88.9571 182.102 88.9571C182.06 88.9571 182.025 89.0181 182.026 89.092ZM23.3245 89.6876C23.3448 89.6673 23.3619 89.702 23.3619 89.7648C23.3619 89.8433 23.3337 89.8558 23.2713 89.8036C23.2213 89.7625 23.1654 89.744 23.1464 89.7629C23.1275 89.7819 23.1122 89.7269 23.1122 89.6414C23.1122 89.5065 23.1238 89.5019 23.1996 89.6054C23.2477 89.671 23.3041 89.708 23.3245 89.6876ZM162.967 89.768C162.987 89.8729 163.031 89.9584 163.064 89.9584C163.136 89.9584 163.07 89.6641 162.987 89.6128C162.956 89.5938 162.947 89.6636 162.967 89.768ZM23.5765 90.0416C23.5567 90.0734 23.5844 90.116 23.6376 90.1363C23.6908 90.1571 23.6621 90.1705 23.5738 90.1663C23.4031 90.158 23.3444 89.9843 23.5127 89.9843C23.5673 89.9843 23.596 90.0101 23.5765 90.0416ZM91.2981 90.3433C91.2981 90.5129 91.2708 90.6515 91.238 90.6515C91.2051 90.6515 91.1913 90.5129 91.2075 90.3433C91.2236 90.1742 91.2509 90.0356 91.2676 90.0356C91.2842 90.0356 91.2981 90.1742 91.2981 90.3433ZM181.717 90.4976C181.672 90.5822 181.657 90.6515 181.685 90.6515C181.713 90.6515 181.692 90.7032 181.64 90.767C181.573 90.8469 181.57 90.8825 181.63 90.8825C181.678 90.8825 181.717 90.8737 181.717 90.8626C181.717 90.852 181.749 90.7305 181.789 90.5933C181.869 90.3105 181.839 90.2694 181.717 90.4976ZM24.6981 90.9597C24.6981 91.0105 34.9101 91.0364 55.1796 91.0364C75.4182 91.0364 85.6778 91.0105 85.7093 90.9597C85.7412 90.9084 75.5611 90.8825 55.2277 90.8825C34.9258 90.8825 24.6981 90.9084 24.6981 90.9597ZM91.6834 90.9597C91.6834 91.0105 101.895 91.0364 122.165 91.0364C142.403 91.0364 152.663 91.0105 152.695 90.9597C152.726 90.9084 142.546 90.8825 122.213 90.8825C101.911 90.8825 91.6834 90.9084 91.6834 90.9597ZM181.11 91.8551C180.977 92.1448 181.065 92.1753 181.212 91.8907C181.28 91.7599 181.305 91.6527 181.269 91.6527C181.232 91.6527 181.16 91.7438 181.11 91.8551ZM162.987 92.7802C162.986 92.8282 163.057 92.9493 163.144 93.0495C163.269 93.1923 163.286 93.1983 163.224 93.0773C163.09 92.8162 162.988 92.6882 162.987 92.7802ZM163.857 93.9182C163.873 94.0758 164.065 94.1899 164.065 94.0416C164.065 93.9935 164.033 93.9736 163.993 93.9977C163.954 94.0222 163.904 93.9806 163.882 93.9062C163.849 93.7916 163.844 93.7934 163.857 93.9182ZM176.97 94.6926C176.889 94.7545 176.856 94.8058 176.899 94.8063C177.014 94.8081 177.209 94.6709 177.161 94.6224C177.138 94.5993 177.052 94.6311 176.97 94.6926ZM164.808 94.9269C164.834 94.9934 164.873 95.029 164.896 95.0063C164.919 94.9837 164.985 95.0336 165.045 95.1177C165.205 95.3464 165.495 95.4924 165.36 95.2766C165.305 95.1893 165.217 95.1181 165.164 95.1181C165.11 95.1181 165.067 95.0844 165.067 95.0437C165.067 95.0026 164.998 94.9329 164.914 94.888C164.789 94.821 164.77 94.828 164.808 94.9269ZM176.629 94.8742C176.629 94.9236 176.579 94.9638 176.518 94.9638C176.457 94.9638 176.386 94.9985 176.359 95.041C176.29 95.1533 176.422 95.1352 176.595 95.0086C176.677 94.9486 176.719 94.8737 176.687 94.8418C176.655 94.8104 176.629 94.8247 176.629 94.8742ZM178.557 95.0978C178.416 95.1533 178.214 95.3496 178.3 95.3473C178.335 95.3464 178.45 95.278 178.556 95.1948C178.755 95.0401 178.755 95.0207 178.557 95.0978ZM167.533 95.3044C167.748 95.4337 167.917 95.4675 167.799 95.3575C167.759 95.3201 167.639 95.2665 167.533 95.2387L167.34 95.1884L167.533 95.3044ZM177.978 95.503C177.952 95.5455 177.983 95.5802 178.046 95.5802C178.11 95.5802 178.183 95.5455 178.209 95.503C178.236 95.4605 178.205 95.4259 178.141 95.4259C178.078 95.4259 178.004 95.4605 177.978 95.503ZM168.183 95.6204C168.265 95.6818 168.35 95.7137 168.373 95.6906C168.422 95.6421 168.226 95.5049 168.111 95.5067C168.069 95.5072 168.101 95.5585 168.183 95.6204ZM168.491 95.7248C168.548 95.8163 168.844 95.8893 168.844 95.8121C168.844 95.7484 168.656 95.6569 168.524 95.6569C168.483 95.6569 168.468 95.6874 168.491 95.7248ZM174.851 95.7793C174.79 95.8528 174.808 95.8662 174.93 95.8343C175.125 95.7835 175.201 95.6828 175.044 95.6828C174.982 95.6828 174.895 95.7262 174.851 95.7793ZM166.261 96.0173C166.473 96.1268 166.671 96.2543 166.7 96.3005C166.73 96.3463 166.779 96.3592 166.81 96.3287C166.876 96.2622 166.891 96.2751 166.44 96.0173C166.242 95.9041 166.034 95.8126 165.978 95.8145C165.922 95.8168 166.05 95.9078 166.261 96.0173ZM169.782 96.076C169.866 96.1675 170.386 96.264 170.386 96.1878C170.386 96.1499 170.325 96.1185 170.251 96.118C170.177 96.1176 170.029 96.0949 169.923 96.0681C169.817 96.0413 169.753 96.045 169.782 96.076ZM177.072 96.0954C176.998 96.1143 176.937 96.1624 176.937 96.2017C176.937 96.3107 177.061 96.2871 177.169 96.1578C177.221 96.094 177.252 96.0459 177.236 96.051C177.22 96.0561 177.146 96.076 177.072 96.0954ZM170.803 96.283C170.781 96.3199 170.943 96.35 171.164 96.35C171.386 96.35 171.553 96.3366 171.535 96.3199C171.463 96.2525 170.842 96.2211 170.803 96.283ZM172.582 96.2779C172.461 96.3287 172.482 96.3393 172.685 96.3292C172.826 96.3223 172.953 96.2964 172.968 96.2723C173.011 96.203 172.753 96.2067 172.582 96.2779ZM166.923 96.3735C166.941 96.3865 167.059 96.4576 167.186 96.532L167.418 96.6674L167.236 96.5089C167.136 96.4216 167.017 96.35 166.972 96.35C166.927 96.35 166.905 96.3606 166.923 96.3735ZM167.72 96.7755C167.879 96.8952 167.967 96.8763 167.883 96.7404C167.855 96.6951 167.774 96.6591 167.702 96.6605C167.588 96.6628 167.59 96.6766 167.72 96.7755ZM168.612 97.0204C168.612 97.0671 168.722 97.1433 168.855 97.1895C169.155 97.2944 169.229 97.2958 169.229 97.1974C169.229 97.1549 169.132 97.1202 169.013 97.1202C168.895 97.1202 168.756 97.0786 168.705 97.0278C168.642 96.965 168.612 96.9627 168.612 97.0204ZM175.049 97.0431C175.023 97.0856 174.884 97.1202 174.74 97.1202C174.597 97.1202 174.458 97.1549 174.432 97.1974C174.406 97.2394 174.309 97.2768 174.216 97.2801C174.123 97.2838 174.085 97.3018 174.131 97.3212C174.218 97.3572 174.908 97.1923 175.242 97.0551C175.424 96.9802 175.425 96.9756 175.265 96.971C175.172 96.9682 175.075 97.001 175.049 97.0431ZM169.308 97.3C169.331 97.3231 169.521 97.3651 169.732 97.3933C169.943 97.4215 170.097 97.4256 170.075 97.4025C170.053 97.3794 169.862 97.3374 169.651 97.3092C169.44 97.281 169.286 97.2769 169.308 97.3ZM172.274 97.5051C172.248 97.5476 172.278 97.5823 172.342 97.5823C172.405 97.5823 172.479 97.5476 172.505 97.5051C172.532 97.4631 172.501 97.4284 172.437 97.4284C172.374 97.4284 172.3 97.4631 172.274 97.5051Z" fill="white"/>
<path fill-rule="evenodd" clip-rule="evenodd" d="M10.8904 18.9375C10.797 19.0567 10.7988 19.0614 10.9075 18.9763C11.0023 18.9024 12.2821 18.8761 16.4959 18.8604L21.9617 18.84L16.4788 18.8215C11.3363 18.804 10.9899 18.8109 10.8904 18.9375ZM22.0385 45.6017C22.0385 60.3199 22.0473 66.3409 22.0579 58.9818C22.069 51.6227 22.069 39.5807 22.0579 32.2215C22.0473 24.8624 22.0385 30.8834 22.0385 45.6017ZM2.49835 31.5474C2.55108 31.6112 2.62878 31.6629 2.67133 31.6629C2.71434 31.6629 2.70602 31.6121 2.65237 31.5474C2.59964 31.4841 2.52194 31.4319 2.47939 31.4319C2.43638 31.4319 2.4447 31.4832 2.49835 31.5474ZM12.789 72.4779C12.758 72.5278 13.1234 72.5546 13.8296 72.5546C14.5354 72.5546 14.9008 72.5278 14.8702 72.4779C14.8425 72.4331 14.4082 72.4007 13.8296 72.4007C13.2506 72.4007 12.8167 72.4331 12.789 72.4779ZM13.5359 102.029C14.0738 102.043 14.9757 102.043 15.5399 102.03C16.1042 102.016 15.6639 102.006 14.5617 102.006C13.4596 102.006 12.9976 102.016 13.5359 102.029ZM16.5852 108.537C16.5958 112.021 16.6134 116.465 16.6245 118.413C16.6356 120.362 16.6527 117.511 16.6629 112.079C16.6731 106.648 16.6555 102.203 16.6236 102.203C16.5921 102.203 16.5745 105.054 16.5852 108.537ZM10.9001 103.692C10.6504 103.886 10.569 104.043 10.741 103.998C10.8275 103.976 10.8807 103.928 10.8594 103.893C10.8377 103.858 10.8812 103.796 10.9556 103.754C11.0306 103.712 11.0745 103.661 11.0537 103.64C11.0329 103.619 10.9635 103.642 10.9001 103.692ZM13.0771 105.977C13.0114 106.109 13.0313 122.149 13.097 122.153C13.5452 122.182 13.9068 122.18 13.9064 122.149C13.9064 122.127 14.484 122.12 15.1898 122.133C15.8961 122.145 16.5015 122.128 16.5357 122.094C16.5695 122.061 16.2087 122.045 15.7337 122.059C15.2587 122.073 14.4799 122.061 14.003 122.032L13.1363 121.979L13.1164 113.959C13.1053 109.547 13.0878 105.955 13.0771 105.977ZM8.78049 106.439C8.94468 106.62 9.064 106.641 9.0011 106.478C8.97705 106.414 8.92618 106.381 8.88825 106.405C8.84987 106.429 8.81888 106.411 8.81888 106.366C8.81888 106.321 8.7791 106.284 8.73008 106.284C8.67967 106.284 8.7014 106.351 8.78049 106.439ZM10.0491 107.628C10.2383 107.821 10.4071 107.979 10.4242 107.979C10.4899 107.979 9.93119 107.376 9.82112 107.328C9.75775 107.3 9.85997 107.435 10.0491 107.628ZM13.1622 123.286C13.1132 123.317 13.9198 123.342 14.9544 123.342C15.989 123.342 16.8359 123.316 16.8359 123.284C16.8359 123.209 13.2797 123.211 13.1622 123.286Z" fill="#FC9C04"/>
</svg>
