<svg width="18" height="18" viewBox="0 0 18 18" fill="none" xmlns="http://www.w3.org/2000/svg">
<path d="M10.3099 17.4002C8.98761 17.6067 7.63523 17.4981 6.36284 17.0832C5.09044 16.6683 3.93401 15.9588 2.98766 15.0124C2.04132 14.0661 1.33181 12.9096 0.916889 11.6372C0.501968 10.3648 0.393363 9.01246 0.599913 7.69016C0.0786456 6.69867 -0.111831 5.56644 0.0563225 4.45897C0.224476 3.3515 0.742445 2.32684 1.53452 1.53477C2.3266 0.742689 3.35125 0.224721 4.45873 0.0565667C5.5662 -0.111587 6.69842 0.0788897 7.68991 0.600157C9.01221 0.393607 10.3646 0.502212 11.637 0.917133C12.9094 1.33205 14.0658 2.04156 15.0122 2.98791C15.9585 3.93425 16.668 5.09069 17.0829 6.36308C17.4979 7.63547 17.6065 8.98786 17.3999 10.3102C17.9212 11.3016 18.1117 12.4339 17.9435 13.5413C17.7754 14.6488 17.2574 15.6735 16.4653 16.4655C15.6732 17.2576 14.6486 17.7756 13.5411 17.9437C12.4336 18.1119 11.3014 17.9214 10.3099 17.4002ZM9.05191 14.1562H9.01191C11.8839 14.1562 13.3149 12.7702 13.3149 10.9132C13.3149 9.71516 12.7639 8.44216 10.5889 7.95516L8.60591 7.51516C7.85091 7.34316 6.98391 7.11516 6.98391 6.40016C6.98391 5.68516 7.60391 5.18716 8.70791 5.18716C10.9379 5.18716 10.7349 6.71516 11.8389 6.71516C12.4149 6.71516 12.9319 6.37316 12.9319 5.78516C12.9319 4.41516 10.7349 3.38516 8.87591 3.38516C6.85491 3.38516 4.70291 4.24416 4.70291 6.52916C4.70291 7.62716 5.09691 8.79916 7.26291 9.34216L9.95191 10.0132C10.7679 10.2152 10.9699 10.6722 10.9699 11.0852C10.9699 11.7722 10.2859 12.4432 9.05191 12.4432C6.63491 12.4432 6.97391 10.5862 5.67791 10.5862C5.09791 10.5862 4.67491 10.9842 4.67491 11.5572C4.67491 12.6712 6.02691 14.1552 9.05191 14.1552V14.1562Z" fill="white"/>
</svg>
